<svg role="graphics-symbol" viewBox="0 0 16 16" class="enter" style="width: 12px; height: 12px; display: block; fill: rgb(145, 145, 142); flex-shrink: 0; opacity: 1;"><path d="M5.38965 14.1667C5.81812 14.1667 6.10156 13.8767 6.10156 13.468C6.10156 13.2571 6.01587 13.0989 5.89062 12.967L4.18994 11.3125L3.02979 10.3369L4.55908 10.4028H12.7922C14.4402 10.4028 15.1389 9.65796 15.1389 8.04297V4.13403C15.1389 2.48608 14.4402 1.78735 12.7922 1.78735H9.13379C8.70532 1.78735 8.4021 2.11035 8.4021 2.50586C8.4021 2.90137 8.69873 3.22437 9.13379 3.22437H12.7593C13.4316 3.22437 13.7151 3.50781 13.7151 4.17358V7.99683C13.7151 8.67578 13.425 8.95923 12.7593 8.95923H4.55908L3.02979 9.03174L4.18994 8.04956L5.89062 6.39502C6.01587 6.26978 6.10156 6.11157 6.10156 5.89404C6.10156 5.48535 5.81812 5.19531 5.38965 5.19531C5.21167 5.19531 5.01392 5.27441 4.8689 5.41943L1.08521 9.1438C0.933594 9.28882 0.854492 9.48657 0.854492 9.68433C0.854492 9.87549 0.933594 10.0732 1.08521 10.2183L4.8689 13.9492C5.01392 14.0876 5.21167 14.1667 5.38965 14.1667Z"></path></svg>