<svg xmlns="http://www.w3.org/2000/svg" viewBox="0 0 500 500" width="500" height="500" style="width:100%;height:100%;transform:translate3d(0,0,0);content-visibility:visible"><defs><clipPath id="a"><path d="M0 0h500v500H0z"/></clipPath></defs><g clip-path="url(#a)"><g style="display:block"><path fill="#E2E5E7" d="M308.702 107.381H178.895c-15.837 0-28.677 12.756-28.677 28.49V380.01c0 15.734 12.84 28.49 28.677 28.49h165.126c15.838 0 28.677-12.756 28.677-28.49V170.957z"/><path fill="#CAD1D8" d="m308.728 382-.025-72.063c0-6.76-5.515-12.238-12.318-12.238H150.219l.022 81.77c0 5.243 1.285 10.562 3.841 14.756l142.327.014c6.804 0 12.32-5.479 12.32-12.237m12.467-215.094L372.7 219.98v-48.865z"/><path fill="#B0B7BD" d="M372.699 171.116v-.159l-63.996-63.575v38.95c0 13.688 11.169 24.784 24.947 24.784z"/></g><g style="display:block"><path fill="#FA0F00" d="m150.277 282.496-9.426.003c-7.364 0-13.333-5.969-13.333-13.333s5.969-13.333 13.333-13.333l9.426-.004z"/><path fill="#FF5A62" d="M308.399 294.777c0-6.781-5.497-12.277-12.278-12.277l-148.509-.006-6.761.006c-7.364 0-13.334-5.97-13.334-13.334v98.056c0 6.781 5.497 12.278 12.278 12.278h156.326c6.781 0 12.278-5.497 12.278-12.278z"/></g><g fill="#FFF" font-size="61.164" font-family="Mark Black" font-weight="900" aria-label="PDF" style="display:block" stroke-linejoin="round"><g style="display:inherit"><g style="display:block"><path d="M177.908 317.517c1.47 0 2.66.39 3.59 1.17.93.77 1.39 1.84 1.39 3.21 0 1.36-.46 2.43-1.39 3.19-.93.77-2.12 1.15-3.59 1.15h-7.34v-8.72zm.27 18.9c5.26 0 9.32-1.31 12.18-3.94 2.85-2.63 4.28-6.16 4.28-10.58 0-4.51-1.44-8.1-4.31-10.78q-4.32-4.02-12.3-4.02h-19.08v42.81h11.62v-13.49z"/><g transform="translate(155.888 349.907)scale(.61164)"/></g></g><g style="display:inherit"><g style="display:block"><path d="M217.723 317.767c3.39 0 5.97.97 7.75 2.92 1.79 1.95 2.68 4.55 2.68 7.81 0 3.22-.89 5.82-2.68 7.79-1.78 1.96-4.36 2.95-7.75 2.95h-6.97v-21.47zm-18.59-10.67v42.81h18.9c6.68 0 12.06-1.96 16.11-5.87 4.06-3.92 6.09-9.09 6.09-15.54 0-6.44-2.03-11.62-6.09-15.53-4.05-3.92-9.43-5.87-16.11-5.87z"/><g transform="translate(196.073 349.907)scale(.61164)"/></g></g><g style="display:inherit"><g style="display:block"><path d="M276.442 324.007h-20v-6.58h21.53v-10.33h-33.15v42.81h11.62v-15.57h20z"/><g transform="translate(241.762 349.907)scale(.61164)"/></g></g></g><path fill="#FA0F00" d="M50.809 11.363C39.966 4.977 16.749 9.5 16.749 9.5 9.298 3.047.983-10.723.983-10.723 4.708-22.098 6.305-30.28 6.704-36.001c1.53-21.154-19.956-24.614-21.819-6.786-1.264 12.24 5.92 26.609 5.92 26.609-7.584 22.352-15.633 36.987-15.633 36.987-14.901 6.054-22.684 11.575-26.675 15.699-11.774 12.107 2.328 23.616 16.165 14.436 12.24-8.116 21.819-27.208 21.819-27.208 15.433-4.923 27.873-7.251 27.873-7.251C27.06 27.727 38.236 29.391 44.09 28.925c12.706-1.064 15.5-12.373 6.719-17.562M-43.72 47.019c-5.787 3.393-8.382-1.597-4.258-6.32 5.388-6.12 19.957-12.573 19.957-12.573-7.251 12.24-12.572 17.03-15.699 18.893m34.126-88.874c.532-8.648 6.918-9.38 7.251-.333.133 3.792-.532 9.979-3.858 19.824 0 0-3.992-9.845-3.393-19.491m.532 57.475s3.925-8.515 7.517-18.227c0 0 5.654 8.847 10.311 13.437 0 0-11.043 2.395-17.828 4.79M39.3 23.004c-3.326-.133-9.313-1.729-18.693-8.847 0 0 13.837-1.397 20.29 0 6.918 1.464 5.587 9.113-1.597 8.847" transform="rotate(-.176 65268.425 -84079.002)" style="display:block"/></g></svg>