<svg width="16" height="16" fill="none" xmlns="http://www.w3.org/2000/svg"><g stroke="currentColor" stroke-width="1.5" stroke-linecap="round" stroke-linejoin="round" clip-path="url(#options_svg__a)"><path d="M3.29 9.91a1.05 1.05 0 0 1-.21 1.157l-.037.038a1.272 1.272 0 1 0 1.8 1.801l.039-.038a1.05 1.05 0 0 1 1.158-.21 1.05 1.05 0 0 1 .636.961v.108a1.273 1.273 0 0 0 2.546 0v-.057a1.05 1.05 0 0 1 .687-.96 1.05 1.05 0 0 1 1.158.21l.038.037a1.272 1.272 0 0 0 2.175-.9 1.272 1.272 0 0 0-.374-.9l-.038-.039a1.05 1.05 0 0 1-.21-1.158 1.05 1.05 0 0 1 .961-.636h.108a1.273 1.273 0 0 0 0-2.546h-.057a1.05 1.05 0 0 1-.96-.687 1.05 1.05 0 0 1 .21-1.158l.037-.038a1.272 1.272 0 1 0-1.8-1.801l-.039.038a1.05 1.05 0 0 1-1.158.21h-.05a1.05 1.05 0 0 1-.637-.961v-.108a1.273 1.273 0 0 0-2.546 0v.057a1.05 1.05 0 0 1-.636.96 1.05 1.05 0 0 1-1.158-.21l-.038-.037a1.273 1.273 0 1 0-1.801 1.8l.038.039a1.05 1.05 0 0 1 .21 1.158v.05a1.05 1.05 0 0 1-.961.637h-.108a1.273 1.273 0 0 0 0 2.546h.057a1.05 1.05 0 0 1 .96.636Z"></path><path d="M8 10a2 2 0 1 1 0-4 2 2 0 0 1 0 4Z"></path></g><defs><clipPath id="options_svg__a"><path fill="currentColor" d="M0 0h16v16H0z"></path></clipPath></defs></svg>