<svg width="256" xmlns="http://www.w3.org/2000/svg" viewBox="0 0 700 700"><path fill="#fff" d="M338.819 136.414V279.96c0 9.857-8.002 17.859-17.86 17.859H114.411c-9.857 0-17.846-8.002-17.846-17.86V136.415z"/><path d="M320.96 298.318H114.41c-10.116 0-18.346-8.236-18.346-18.36V136.415a.5.5 0 0 1 .5-.5h242.254a.5.5 0 0 1 .5.5V279.96c0 10.123-8.237 18.359-18.36 18.359M97.064 136.914V279.96c0 9.571 7.78 17.359 17.346 17.359h206.55c9.572 0 17.36-7.788 17.36-17.36V136.915z"/><path fill="#fff" d="M338.814 136.411v-7.675c0-9.861-7.994-17.855-17.855-17.855h-206.54c-9.862 0-17.856 7.994-17.856 17.855v7.675z"/><path d="M338.815 136.911H96.563a.5.5 0 0 1-.5-.5v-7.675c0-10.121 8.234-18.355 18.355-18.355H320.96c10.121 0 18.356 8.234 18.356 18.355v7.675a.5.5 0 0 1-.5.5m-241.752-1h241.252v-7.175c0-9.57-7.786-17.355-17.356-17.355H114.42c-9.571 0-17.356 7.785-17.356 17.355z"/><path fill="#3a9bf3" d="M125.608 123.636c0 3.102-2.502 5.605-5.584 5.605s-5.585-2.503-5.585-5.605c0-3.082 2.503-5.585 5.585-5.585s5.584 2.503 5.584 5.585"/><path fill="#75c675" d="M146.87 123.636c0 3.102-2.503 5.605-5.585 5.605s-5.584-2.503-5.584-5.605c0-3.082 2.503-5.585 5.584-5.585s5.585 2.503 5.585 5.585"/><path fill="#ffa186" d="M168.132 123.636c0 3.102-2.503 5.605-5.585 5.605s-5.584-2.503-5.584-5.605c0-3.082 2.502-5.585 5.584-5.585s5.585 2.503 5.585 5.585"/><path fill="#fff" d="M299.337 227.378c-5.268-3.481-10.506-6.585-11.646-5.771-1.966 1.403 3.741 5.714 6.194 7.417-5.268-3.482-8.068-5.744-9.285-4.21-1.211 1.527 1.67 4.769 4.123 6.472-3.811-2.352-6.112-3.42-6.748-2.403-1.134 1.817 2.361 4.966 4.814 6.67-2.478-1.33-4.914-2.85-5.403-1.534-1.152 3.1 15.761 14.197 15.761 14.197l12.79-14.531s-6.977-15.948-11.135-15.137c-1.654.323.535 8.83.535 8.83"/><path d="M296.955 248.509c-2.863-1.879-17.087-11.412-15.897-14.612.118-.316.336-.542.632-.652.53-.2 1.278-.006 2.165.384-1.6-1.516-3.088-3.471-2.176-4.931.582-.929 1.982-.617 4.157.513-.972-1.075-1.703-2.22-1.846-3.184-.083-.564.03-1.045.335-1.43.84-1.06 2.155-.71 4.194.489-.934-.986-1.577-1.943-1.582-2.708a1.24 1.24 0 0 1 .551-1.056c.767-.55 2.73-.329 11.297 5.274-.473-2.015-1.445-6.68-.63-7.973a.88.88 0 0 1 .58-.418c4.306-.846 10.796 13.68 11.522 15.34a.35.35 0 0 1-.058.37l-12.789 14.532a.35.35 0 0 1-.455.062m-14.772-14.647a.7.7 0 0 0-.248.038c-.072.027-.16.078-.221.241-.759 2.041 8.919 9.357 15.372 13.615l12.44-14.135c-1.99-4.497-7.53-15.342-10.657-14.73-.017.004-.062.013-.12.106-.626.989.237 5.612.927 8.294a.35.35 0 0 1-.532.379c-9.06-5.988-10.887-6.038-11.25-5.778-.179.128-.26.277-.257.481.007 1.151 2.538 3.649 6.447 6.363a.35.35 0 0 1-.392.58q-1.097-.728-2.054-1.373c-3.69-2.482-5.916-3.98-6.764-2.912-.183.231-.246.523-.191.893.228 1.543 2.354 3.766 4.239 5.074a.35.35 0 0 1-.383.586c-1.548-.955-5.656-3.49-6.266-2.515-.875 1.4 1.832 4.193 4.715 6.196a.35.35 0 0 1-.364.596l-.797-.432c-1.354-.74-2.87-1.567-3.644-1.567"/><path fill="#cad5ff" d="M222.14 235.35c-9.555 5.048-21.388 1.39-26.43-8.158-5.047-9.549-1.395-21.383 8.154-26.43 9.56-5.046 21.393-1.395 26.44 8.154 5.041 9.554 1.39 21.388-8.165 26.435"/><path d="M195.268 227.425c-5.167-9.777-1.416-21.936 8.362-27.105 9.786-5.166 21.95-1.413 27.116 8.362 5.162 9.784 1.406 21.945-8.374 27.11-9.82 5.189-21.94 1.416-27.104-8.367m8.829-26.22c-9.29 4.91-12.855 16.464-7.944 25.753 4.916 9.313 16.438 12.872 25.752 7.95 9.292-4.908 12.862-16.463 7.956-25.759-4.924-9.317-16.495-12.838-25.764-7.944"/><path d="M217.09 218.055a4.08 4.08 0 0 1-4.099 4.098 4.08 4.08 0 0 1-4.082-4.098c0-2.261 1.822-4.1 4.082-4.1a4.093 4.093 0 0 1 4.1 4.1"/><path d="M212.991 222.503c-2.443 0-4.431-1.995-4.431-4.448s1.988-4.45 4.431-4.45a4.454 4.454 0 0 1 4.449 4.45 4.453 4.453 0 0 1-4.449 4.448m0-8.198c-2.057 0-3.732 1.682-3.732 3.75s1.675 3.748 3.732 3.748a3.753 3.753 0 0 0 3.75-3.748 3.753 3.753 0 0 0-3.75-3.75"/><path fill="#fff" d="m276.205 227.844-8.28-5.908c.433-5.93-.11-11.97-1.673-17.89l7.038-7.337a3.64 3.64 0 0 0 .599-4.234l-5.431-10.274a3.645 3.645 0 0 0-3.835-1.895l-10.02 1.673a54.3 54.3 0 0 0-13.855-11.472l-.2-10.174a3.66 3.66 0 0 0-2.582-3.403l-11.128-3.447a3.65 3.65 0 0 0-4.045 1.385l-5.908 8.28a54.4 54.4 0 0 0-17.878 1.663l-7.348-7.05a3.64 3.64 0 0 0-4.234-.587l-10.286 5.43a3.64 3.64 0 0 0-1.895 3.825l1.673 10.052a54.4 54.4 0 0 0-11.46 13.833l-10.175.211a3.665 3.665 0 0 0-3.414 2.56l-3.436 11.14c-.465 1.484.089 3.125 1.374 4.045l8.291 5.907c-.421 5.93.1 11.97 1.674 17.878l-7.038 7.36a3.63 3.63 0 0 0-.599 4.223l5.431 10.286a3.645 3.645 0 0 0 3.835 1.895l10.03-1.685a54.5 54.5 0 0 0 13.822 11.46l.222 10.187a3.65 3.65 0 0 0 2.56 3.414l11.128 3.435a3.66 3.66 0 0 0 4.046-1.374l5.907-8.29a54.2 54.2 0 0 0 17.89-1.663l7.36 7.038a3.63 3.63 0 0 0 4.222.598l10.286-5.43a3.65 3.65 0 0 0 1.895-3.836l-1.674-10.041a54.6 54.6 0 0 0 11.46-13.833l10.165-.21a3.64 3.64 0 0 0 3.413-2.56l3.436-11.14c.466-1.485-.088-3.125-1.363-4.045m-54.066 7.507c-9.554 5.047-21.387 1.389-26.429-8.16-5.047-9.548-1.395-21.382 8.154-26.428 9.56-5.047 21.393-1.396 26.44 8.153 5.041 9.554 1.39 21.388-8.165 26.435"/><path d="M200.237 283.29c-.406 0-.816-.059-1.22-.181l-11.13-3.436a4.13 4.13 0 0 1-2.913-3.885l-.216-9.904a55 55 0 0 1-13.52-11.21l-9.755 1.638a4.14 4.14 0 0 1-4.36-2.154l-5.431-10.286a4.13 4.13 0 0 1 .682-4.805l6.842-7.155a54.8 54.8 0 0 1-1.637-17.49l-8.062-5.745a4.14 4.14 0 0 1-1.563-4.602l3.437-11.138a4.15 4.15 0 0 1 3.88-2.912l9.894-.205a54.8 54.8 0 0 1 11.213-13.532l-1.628-9.777a4.13 4.13 0 0 1 2.154-4.348l10.288-5.431a4.135 4.135 0 0 1 4.813.668l7.147 6.856a54.9 54.9 0 0 1 17.489-1.626l5.745-8.052a4.15 4.15 0 0 1 4.598-1.574l11.13 3.448a4.15 4.15 0 0 1 2.935 3.866l.193 9.898a54.7 54.7 0 0 1 13.554 11.224l9.744-1.628a4.14 4.14 0 0 1 4.359 2.154l5.432 10.276a4.14 4.14 0 0 1-.682 4.816l-6.842 7.133a55 55 0 0 1 1.637 17.5l8.051 5.746.003.001a4.15 4.15 0 0 1 1.548 4.6l-3.436 11.137a4.13 4.13 0 0 1-3.88 2.913l-9.885.205a55 55 0 0 1-11.212 13.532l1.628 9.766a4.14 4.14 0 0 1-2.154 4.359l-10.287 5.431a4.12 4.12 0 0 1-4.804-.682l-7.155-6.842a54.6 54.6 0 0 1-17.501 1.627l-5.745 8.062a4.13 4.13 0 0 1-3.378 1.745m-28.806-29.656c.143 0 .282.062.379.173a53.9 53.9 0 0 0 13.694 11.356.5.5 0 0 1 .248.42l.222 10.187a3.14 3.14 0 0 0 2.21 2.948l11.126 3.434a3.15 3.15 0 0 0 3.49-1.185l5.908-8.292a.5.5 0 0 1 .445-.208c5.952.445 11.91-.11 17.723-1.647a.5.5 0 0 1 .474.122l7.36 7.037a3.12 3.12 0 0 0 3.644.518l10.285-5.43a3.14 3.14 0 0 0 1.636-3.309l-1.674-10.044a.5.5 0 0 1 .166-.46 54 54 0 0 0 11.355-13.706.5.5 0 0 1 .422-.249l10.164-.21a3.13 3.13 0 0 0 2.945-2.207l3.438-11.14a3.15 3.15 0 0 0-1.176-3.491l-8.28-5.908a.5.5 0 0 1-.208-.443 54 54 0 0 0-1.658-17.726.5.5 0 0 1 .122-.473l7.039-7.338a3.14 3.14 0 0 0 .515-3.655l-5.43-10.273a3.14 3.14 0 0 0-3.308-1.637l-10.022 1.674a.5.5 0 0 1-.46-.166 53.7 53.7 0 0 0-13.727-11.366.5.5 0 0 1-.25-.423l-.199-10.175a3.15 3.15 0 0 0-2.229-2.934l-11.13-3.448a3.15 3.15 0 0 0-3.489 1.198l-5.909 8.28a.5.5 0 0 1-.443.209 53.9 53.9 0 0 0-17.714 1.647.5.5 0 0 1-.474-.123l-7.348-7.05a3.14 3.14 0 0 0-3.654-.506l-10.287 5.432a3.13 3.13 0 0 0-1.636 3.297l1.674 10.055a.5.5 0 0 1-.166.46 53.8 53.8 0 0 0-11.355 13.706.5.5 0 0 1-.422.249l-10.175.21a3.15 3.15 0 0 0-2.946 2.21l-3.437 11.138a3.14 3.14 0 0 0 1.189 3.491l8.289 5.907c.141.101.22.269.209.443-.428 6.02.13 11.98 1.658 17.714a.5.5 0 0 1-.122.474l-7.038 7.36a3.13 3.13 0 0 0-.517 3.645l5.43 10.284a3.15 3.15 0 0 0 3.308 1.636l10.033-1.685zm23.837-26.209c-5.167-9.777-1.416-21.936 8.362-27.105 9.786-5.166 21.95-1.413 27.116 8.362 5.162 9.784 1.406 21.945-8.374 27.11-9.82 5.189-21.94 1.416-27.104-8.367m8.829-26.22c-9.29 4.91-12.855 16.464-7.944 25.753 4.916 9.313 16.438 12.872 25.752 7.95 9.292-4.908 12.862-16.463 7.956-25.759-4.924-9.317-16.495-12.838-25.764-7.944"/><path fill="#ffc176" d="m336.519 368.006-.01.01c-8.62 7.06-21.39 5.37-27.9-3.67l-66.11-86.58c-13.66 3.58-28.78-.82-38.31-12.47-8.55-10.43-10.49-24.11-6.36-35.98l16.94 20.69 22.01-4.02 8.27-20.77-16.82-20.55c12.35-1.62 25.23 3.01 33.7 13.35 9.54 11.65 10.85 27.33 4.66 40.02l71.83 81.9c7.58 8.16 6.71 21.02-1.9 28.07"/><path fill="#fff" d="M333.021 354.655a7.58 7.58 0 0 1-7.613 7.612 7.575 7.575 0 0 1-7.582-7.612c0-4.2 3.384-7.614 7.582-7.614a7.6 7.6 0 0 1 7.613 7.614"/><path fill="#ed6d4f" d="M294.178 251.07c13.144 17.69 28.198 29.032 42.773 35.561 6.497 2.913 12.899 4.866 19.001 5.986 2.092.395 4.161.694 6.178.885q1.632.16 3.233.257c6.721.437 13.059.085 18.756-.672a87 87 0 0 0 3.638-.545c14.51-2.432 24.06-7.212 24.06-7.212l-10.051-31.677c-31.762 7.607-55.363 8.642-90.912-25.19z"/><path d="M365.363 293.759c6.721.437 13.059.085 18.756-.672l.704-27.74c-7.988 6.849-14.308 16.611-19.46 28.412m7.813 74.322s16.133 21.042 47.913 20.39 46.84-38.562 46.84-38.562z"/><path d="M495.176 357.988s-8.737 20.383-34.691 12.64c-32.248-9.62-26.699-47.796-26.699-47.796z"/><path fill="#6680ff" d="M559.47 534.032c2.193 1.99 4.356 3.867 5.12 4.654a1.935 1.935 0 0 0 2.884-.128l26.133-32.404a1.85 1.85 0 0 0 .244-1.928l-1.416-3.089c-.63-1.385.587-2.903 2.07-2.569l3.323.725a1.87 1.87 0 0 0 1.826-.641l3.849-4.77c.461-.57.568-1.347.258-2.006a11.1 11.1 0 0 0-3.056-3.869l-17.693-14.27-19.482 24.159.011.011c3.256 6.148 3.445 13.456.648 19.833-.482 1.104-1.269 2.019-2.213 2.81-3.487 2.98-9.021 4.278-8.215 7.394.259.998 3.008 3.633 5.709 6.088"/><path d="M563.878 537.927q.347.386.708.758c.813.828 2.16.77 2.884-.128l26.137-32.408a1.84 1.84 0 0 0 .241-1.923l-1.01-2.21zm31.576-39.153 2.374.518c.682.149 1.39-.1 1.828-.644l3.845-4.767c.457-.567.57-1.35.256-2.007a11 11 0 0 0-1.184-1.928zM583.01 473.74l9.577 7.723c-.46.86-1.016 1.686-1.647 2.469-4.905 6.082-13.18 7.836-19.97 4.736z"/><path fill="#fff" d="M564.2 501.192a.35.35 0 0 1 .279-.642c1.526.663 3.169.328 5.02-1.03a.35.35 0 1 1 .413.565c-1.77 1.299-3.698 1.982-5.713 1.107m.82 3.318a.35.35 0 0 1 .279-.643c1.525.663 3.169.328 5.02-1.03a.35.35 0 0 1 .414.565c-1.77 1.299-3.699 1.982-5.713 1.107m.819 3.317a.35.35 0 0 1 .28-.642c1.529.664 3.17.326 5.02-1.03a.35.35 0 0 1 .414.565c-1.777 1.302-3.702 1.98-5.714 1.107"/><path d="M559.47 534.032a8.5 8.5 0 0 0 2.124-1.446 8.474 8.474 0 0 0 .44-11.972l-.058-.064c-3.487 2.98-9.021 4.278-8.215 7.394.259.998 3.008 3.633 5.709 6.088"/><path fill="#fff" d="M407.494 356.816c32.319 58.759 40.633 83.287 63.697 103.118 4.949 4.256 10.558 8.295 17.242 12.396 10.826 6.664 24.431 13.502 42.437 21.746 7.944 3.636 16.735 7.54 26.518 11.828 9.277-11.57 18.564-23.13 27.84-34.7-24.69-14.545-41.817-22.561-54.575-29.71-17.51-9.803-26.756-17.975-35.96-39.162-5.33-12.252-10.64-28.863-17.51-52.664-23.264 1.983-46.466 4.752-69.689 7.148"/><path d="M430.955 400.885c3.295 6.302 6.301 12.015 9.152 17.221l12.324-44.855z"/><path fill="#ffa186" d="M488.433 472.33c10.825 6.662 24.435 13.502 42.44 21.746a26.7 26.7 0 0 0-2.723-11.549c-6.511-13.362-22.614-18.913-35.97-12.405a27.6 27.6 0 0 0-3.747 2.208m3.093-41.418c6.509 13.355 22.611 18.906 35.967 12.398a27 27 0 0 0 3.159-1.813c-17.504-9.807-26.755-17.975-35.96-39.164-6.275 7.855-7.866 18.932-3.166 28.579"/><path d="M557.246 506.221c-45.256-19.816-69.71-31.757-86.28-46.02-23.12-19.871-31.578-44.68-63.774-103.217a.35.35 0 0 1 .27-.517c7.408-.765 14.815-1.568 22.223-2.371 15.548-1.686 31.625-3.428 47.464-4.78a.35.35 0 0 1 .365.251c21.792 75.37 28.021 78.616 68.556 99.744 10.4 5.42 23.343 12.166 39.34 21.593a.35.35 0 0 1 .095.521c-9.28 11.57-18.562 23.132-27.846 34.695a.35.35 0 0 1-.413.101M408.06 357.109c31.875 58 40.412 82.835 63.365 102.561 16.47 14.18 40.825 26.08 85.857 45.802a89215 89215 0 0 0 27.424-34.17c-15.82-9.31-28.64-15.993-38.958-21.37-40.716-21.222-47.015-24.506-68.826-99.895-15.737 1.348-31.71 3.08-47.161 4.755-7.233.784-14.467 1.568-21.701 2.317"/><path d="M545.1 501.195a.35.35 0 0 1-.045-.493c9.454-11.391 19.02-23.366 28.898-35.686a.35.35 0 0 1 .547.439c-9.836 12.266-19.528 24.393-28.906 35.694a.35.35 0 0 1-.493.046"/><path fill="#6680ff" d="M347.494 580.569c.345 2.94.741 5.777.799 6.873a1.935 1.935 0 0 0 2.258 1.8l40.994-7.239a1.85 1.85 0 0 0 1.451-1.292l.964-3.258c.436-1.458 2.35-1.802 3.25-.575l2.026 2.73c.42.555 1.115.834 1.798.718l6.036-1.065a1.9 1.9 0 0 0 1.512-1.341c.433-1.553.539-3.23.241-4.925l-3.95-22.384-30.563 5.397v.016c-1.587 6.774-6.25 12.404-12.55 15.371-1.088.515-2.282.687-3.514.662-4.587-.046-9.61-2.707-11.052.172-.46.922-.12 4.715.3 8.34"/><path d="M348.255 586.402q.008.52.036 1.037a1.932 1.932 0 0 0 2.257 1.8l41-7.24a1.84 1.84 0 0 0 1.446-1.29l.692-2.328zm49.534-8.745 1.448 1.95a1.84 1.84 0 0 0 1.8.717l6.032-1.065c.717-.126 1.317-.642 1.512-1.343.201-.72.324-1.469.376-2.231zm7.08-27.045 2.14 12.116a16 16 0 0 1-2.864.777c-7.695 1.359-15.084-2.76-18.163-9.559z"/><path fill="#fff" d="m377.71 561.855-.03-.002c-2.556-.216-4.202-1.172-5.033-2.921a.35.35 0 1 1 .632-.3c.715 1.504 2.174 2.33 4.46 2.524a.35.35 0 0 1-.03.699m-1.562 3.038-.03-.001c-2.555-.217-4.202-1.173-5.033-2.922a.35.35 0 1 1 .633-.3c.715 1.505 2.174 2.33 4.459 2.524a.35.35 0 0 1-.03.699m-1.562 3.038-.03-.001c-2.556-.217-4.202-1.172-5.033-2.922a.35.35 0 1 1 .632-.3c.715 1.505 2.174 2.33 4.46 2.524a.35.35 0 0 1-.029.7"/><path d="M347.494 580.569a8.5 8.5 0 0 0 2.551.307 8.474 8.474 0 0 0 8.203-8.732l-.002-.087c-4.587-.046-9.61-2.707-11.052.172-.46.922-.12 4.715.3 8.34"/><path fill="#fff" d="M364.303 557.792c14.648-2.697 29.313-5.327 43.97-8.004a1323 1323 0 0 1-.594-18.545c-.528-22.155-.168-39.132 1.394-53.473 4.74-43.543 20.54-62.833 56.11-128.93-25.503 4.102-51.009 8.197-76.512 12.315-12.976 29.857-21.546 50.734-26.73 68.7-4.535 15.749-6.476 29.262-6.49 44.634-.026 20.898 3.5 45.236 8.852 83.303"/><path fill="#ffa186" d="M407.75 415.825c3.073 6.306 8.495 10.686 14.696 12.612 5.553-12.385 12.883-25.586 22.33-42.534-7.121-5.586-17.082-6.966-25.77-2.732-12.128 5.91-17.166 20.526-11.256 32.654m-18.154 100.829c3.704 7.6 10.463 12.716 18.083 14.59-.528-22.156-.168-39.133 1.394-53.474a27.3 27.3 0 0 0-6.855 2.286c-13.59 6.623-19.244 23.008-12.622 36.598m-34.144-42.165a24.2 24.2 0 0 0 5.061-1.81c12.034-5.865 17.035-20.372 11.17-32.406a24.1 24.1 0 0 0-9.741-10.418c-4.536 15.749-6.477 29.262-6.49 44.634"/><path d="M363.953 557.843c-13.84-98.44-15.422-105.197 24.4-196.827a.35.35 0 0 1 .266-.206c16.4-2.652 32.803-5.289 49.206-7.926l27.303-4.392a.35.35 0 0 1 .364.511c-50.604 94.066-61.055 93.172-56.87 200.77a.35.35 0 0 1-.288.359c-14.62 2.667-29.321 5.311-43.97 8.007a.35.35 0 0 1-.41-.296M388.92 361.47c-39.637 91.216-38.071 98.116-24.324 195.914 14.502-2.667 29.166-5.306 43.314-7.887-4.15-107.21 6.233-106.61 56.63-200.202l-26.603 4.28c-16.34 2.627-32.68 5.254-49.017 7.895"/><path d="M362.56 545.465a.35.35 0 0 1-.058-.695l11.05-1.885a9515 9515 0 0 0 34.111-5.855.35.35 0 0 1 .12.69c-11.546 2.01-22.507 3.878-34.112 5.856l-11.052 1.884a.3.3 0 0 1-.058.005"/><path fill="#ed6d4f" d="M378.389 325.233c1.891 8.467 4.029 16.21 5.832 22.242 2.316 7.758-11.045 20.606-11.045 20.606s47.696 6.917 75.951-5.105c28.251-12.032 46.053-4.99 46.053-4.99s-33.84-115.977-89.975-105.384c-27.552 5.199-34.542 38.206-26.816 72.631"/><path d="M391.658 224.224s-1.626 4.997 1.306 7.005 6.735-9.263 6.735-9.263z"/><path fill="#fff" d="m422.29 253.133-1.635-16.914a15.5 15.5 0 0 0 .22-3.129c-.354-10.026-9.59-16.75-18.863-14.618-7.526 1.728-9.874 8.094-8.815 15.467.1.726-.39 1.41-1.106 1.577a2.23 2.23 0 0 0-1.71 1.904c-.19 1.607 1.31 2.752 2.844 2.406a1.64 1.64 0 0 1 1.884.937c2.365 5.346 6.518 8.76 12.466 7.978l.422 7.427"/><path d="M407.997 256.518a.35.35 0 0 1-.35-.33l-.4-7.056c-5.448.563-9.855-2.347-12.459-8.228a1.284 1.284 0 0 0-1.487-.736c-1.724.387-3.488-.91-3.267-2.79a2.575 2.575 0 0 1 1.979-2.203c.543-.126.911-.648.837-1.188-1.217-8.471 2.094-14.251 9.084-15.856a15.7 15.7 0 0 1 13.129 2.86c3.747 2.875 5.993 7.28 6.163 12.087a16 16 0 0 1-.219 3.154l1.632 16.868a.35.35 0 0 1-.697.067c-1.697-17.582-1.652-16.906-1.632-17.007a15.3 15.3 0 0 0 .217-3.059c-.164-4.595-2.31-8.807-5.89-11.555a15.02 15.02 0 0 0-12.547-2.732c-6.59 1.513-9.705 7.007-8.547 15.075.123.897-.48 1.76-1.373 1.968a1.87 1.87 0 0 0-1.44 1.604c-.162 1.364 1.12 2.316 2.418 2.024a1.994 1.994 0 0 1 2.28 1.137c2.525 5.705 6.817 8.467 12.101 7.772a.35.35 0 0 1 .396.327l.422 7.427a.35.35 0 0 1-.35.37"/><path d="M393.256 227.448s7.274 4.605 15.904-1.162c0 0-1.44 7.085 7.254 5.787l6.08 1.435s5.2-24.653-8.96-17.53c0 0-3.287-6.71-12.392-6.222-14.344.77-15.935 13.54-7.886 17.692"/><path fill="#fff" d="M413.084 232.66a4.73 4.73 0 0 0 4.14 5.25 4.726 4.726 0 0 0 5.25-4.14 4.726 4.726 0 0 0-4.14-5.25 4.73 4.73 0 0 0-5.25 4.14"/><path d="M417.183 238.257a5.078 5.078 0 0 1 1.192-10.085 5.084 5.084 0 0 1 4.446 5.639 5.085 5.085 0 0 1-5.638 4.446m-3.751-5.556a4.38 4.38 0 0 0 3.833 4.861 4.376 4.376 0 0 0 4.861-3.833 4.383 4.383 0 0 0-3.833-4.862 4.38 4.38 0 0 0-4.861 3.834m-.348-.041h.009zm-5.509 16.081c2.75.301 5.034-1.294 7.146-3.582-.732 4.532-2.934 7.23-6.677 7.602z"/><path d="m407.696 252.801-.468-4.02a.35.35 0 0 1 .385-.388c2.294.251 4.403-.82 6.851-3.472.232-.254.657-.05.603.293-.773 4.788-3.19 7.518-6.989 7.895a.35.35 0 0 1-.382-.308m.276-3.68.379 3.25c2.995-.427 4.941-2.484 5.799-6.122-1.522 1.476-3.62 2.979-6.178 2.873m-10.974-16.17a1.162 1.162 0 1 0 2.308.272 1.162 1.162 0 0 0-2.308-.272"/><path fill="#fff" d="M397.284 229.907s2.909-1.155 3.931 1.854"/><path d="M400.884 231.873c-.272-.798-.71-1.343-1.303-1.618-1.003-.468-2.157-.026-2.168-.022a.35.35 0 0 1-.258-.65c.058-.024 1.435-.558 2.715.034.777.358 1.34 1.042 1.676 2.031a.35.35 0 1 1-.662.225m-2.757 12.846q-.502.002-1.054-.127a.35.35 0 1 1 .163-.68c2.546.606 4.267-1.592 4.34-1.686a.35.35 0 0 1 .555.426c-.073.095-1.611 2.067-4.004 2.067"/><path fill="#fff" d="M327.85 330.272c-6.086 1.681-11.869 3.588-12.005 4.982-.236 2.404 6.765.938 9.66.209-6.086 1.68-9.632 2.303-9.276 4.228.355 1.917 4.692 1.878 7.588 1.149-4.278 1.326-6.596 2.357-6.247 3.505.623 2.049 5.294 1.485 8.19.757-2.63.993-5.377 1.83-4.707 3.063 1.578 2.907 21.06-2.543 21.06-2.543l-2.542-19.19s-16.604-5.227-18.726-1.56c-.845 1.458 7.005 5.4 7.005 5.4"/><path d="M324.232 349.357c-1.785 0-3.086-.287-3.487-1.025a1.06 1.06 0 0 1-.076-.905c.2-.53.836-.967 1.712-1.379-2.196.21-4.645.045-5.145-1.602-.319-1.047.836-1.898 3.119-2.795-1.45.024-2.793-.177-3.613-.703-.48-.308-.767-.71-.856-1.193-.247-1.33.883-2.089 3.125-2.837-1.356.054-2.5-.089-3.081-.588a1.25 1.25 0 0 1-.434-1.11c.093-.94 1.542-2.272 11.403-5.046-1.83-.968-5.985-3.303-6.422-4.767a.88.88 0 0 1 .065-.711c2.202-3.8 17.407.858 19.135 1.402a.35.35 0 0 1 .241.288l2.541 19.19a.35.35 0 0 1-.252.383c-2.487.696-12.503 3.398-17.975 3.398m1.528-4.605a.35.35 0 0 1 .124.677l-.848.315c-1.626.6-3.468 1.282-3.713 1.93-.026.07-.046.171.038.324 1.041 1.914 12.915-.569 20.365-2.631l-2.472-18.668c-4.698-1.457-16.507-4.419-18.106-1.653-.01.016-.033.056 0 .16.334 1.12 4.384 3.51 6.86 4.754a.35.35 0 0 1 .191.347.35.35 0 0 1-.255.303c-10.475 2.892-11.708 4.235-11.75 4.678-.022.22.038.377.193.511.87.75 4.417.486 9.034-.676a.35.35 0 0 1 .178.677q-1.27.35-2.388.646c-4.294 1.149-6.886 1.842-6.638 3.182.054.29.233.529.547.73 1.312.843 4.384.703 6.612.143a.35.35 0 0 1 .188.674c-1.736.537-6.35 1.967-6.015 3.068.48 1.58 4.364 1.376 7.77.52a.3.3 0 0 1 .085-.011"/><path fill="#ed6d4f" d="m337.543 321.64 4.904 27.665c21.882 2.656 40.477-.448 55.244-6.518 6.588-2.705 12.414-6.004 17.426-9.65a72 72 0 0 0 4.901-3.875c7.173-6.183 12.733-12.978 16.95-19.24 8.227-12.195 11.34-22.41 11.34-22.41l-28.414-16.684c-16.363 28.268-33.337 48.239-82.35 50.712"/><path d="M372.114 349.753a.35.35 0 0 1-.043-.698c23.664-2.94 39.011-12.53 47.72-20.056a.35.35 0 1 1 .457.53c-8.781 7.59-24.253 17.259-48.09 20.22zm-23.726-19.117a2.733 2.733 0 0 1-2.382-4.058c.355-.637.938-1.097 1.642-1.296s1.441-.114 2.078.242a2.73 2.73 0 0 1-1.338 5.112m.01-4.76a2.05 2.05 0 0 0-1.78 1.043 2.03 2.03 0 0 0 .787 2.76 2.03 2.03 0 0 0 2.756-.78 2.03 2.03 0 0 0-1.763-3.022m6.927 20.651 2.804-25.036.696.078-2.804 25.036z"/><path d="M397.311 332.422a9.99 9.99 0 0 0 .38 10.365c6.588-2.705 12.414-6.004 17.426-9.65a10 10 0 0 0-4.22-4.564c-4.81-2.687-10.898-.963-13.586 3.85"/><path fill="#cad5ff" d="M220.649 452.528c-.135.387-.68.367-.811-.009-.06-.164-6.144-16.94-18.787-22.256-12.884-5.42-14.782-17.164-14.843-17.56l-4.073-23.706a.43.43 0 0 1 .138-.397.43.43 0 0 1 .415-.095c.18.06 18.674 5.721 33.077 21.479 14.506 15.852 4.979 42.276 4.884 42.544"/><path fill="#ffc176" d="M200.514 458.629c.127.277-.175.547-.44.412-.116-.057-12.004-5.939-21.525-2.297-9.704 3.71-16.759-1.62-16.995-1.802l-14.37-10.637a.32.32 0 0 1-.13-.284.32.32 0 0 1 .174-.264c.128-.06 12.968-6.524 28.8-5.464 15.937 1.058 24.4 20.143 24.486 20.336"/><path fill="#3a9bf3" d="M193.91 499.378c.11.285-.207.536-.463.386-.113-.064-11.634-6.636-21.353-3.56-9.905 3.133-16.634-2.605-16.86-2.8l-13.718-11.465a.32.32 0 0 1-.112-.291.32.32 0 0 1 .188-.253c.132-.053 13.33-5.75 29.073-3.759 15.846 1.995 23.17 21.545 23.246 21.742"/><path fill="#75c675" d="M211.3 491.984c-.127.278.175.547.44.412.116-.057 12.004-5.939 21.525-2.297 9.704 3.711 16.759-1.62 16.995-1.802l14.37-10.637a.32.32 0 0 0 .13-.284.32.32 0 0 0-.174-.264c-.129-.06-12.969-6.524-28.8-5.464-15.937 1.058-24.4 20.144-24.487 20.336"/><path d="M205.656 529.87c-.18-.18-17.646-18.433 5.806-52.441 20.415-29.603-.495-49.814-10.433-57.129a.35.35 0 1 1 .415-.564c10.102 7.437 31.357 27.983 10.594 58.09-23.104 33.504-6.06 51.375-5.885 51.552a.349.349 0 1 1-.497.493"/><path d="M199.439 511.135a.35.35 0 0 1-.262-.42c.071-.308 7.57-30.834 46.094-28.757a.35.35 0 1 1-.037.699c-37.936-2.045-45.305 27.913-45.375 28.216a.35.35 0 0 1-.42.262m12.21-33.842c-.07-.303-7.442-30.263-45.376-28.216a.35.35 0 1 1-.037-.699c38.51-2.076 46.022 28.448 46.094 28.757a.35.35 0 1 1-.681.158"/><path d="M200.195 520.178c-1.53-12.51-6.036-21.688-13.39-27.283-9.747-7.415-21.211-5.804-21.325-5.787a.346.346 0 0 1-.398-.295.35.35 0 0 1 .294-.398c.118-.017 11.871-1.67 21.853 5.923 7.51 5.713 12.106 15.051 13.66 27.755a.35.35 0 0 1-.694.085"/><path fill="#fff" d="m243.334 524.216-11.258 60.794a5.205 5.205 0 0 1-5.116 4.26h-43.086a5.19 5.19 0 0 1-5.116-4.26l-11.259-60.794c-.598-3.2 1.86-6.15 5.116-6.15h65.603c3.257 0 5.706 2.95 5.116 6.15"/><path fill="#cad5ff" d="m232.698 581.648-.622 3.362a5.205 5.205 0 0 1-5.116 4.26h-43.086a5.19 5.19 0 0 1-5.116-4.26l-11.259-60.794c-.598-3.2 1.86-6.15 5.116-6.15h11.67c1.488 3.386 2.288 7.33 2.91 10.499a53.5 53.5 0 0 1 .978 11.913c-.185 6.433-1.51 13.085.574 19.187 2.215 6.473 8.01 11.194 14.281 13.933 6.28 2.748 13.126 3.831 19.81 5.294 3.321.72 6.667 1.576 9.86 2.756"/><path d="M226.96 589.62h-43.086a5.55 5.55 0 0 1-5.46-4.547l-11.259-60.793c-.637-3.413 1.983-6.564 5.46-6.564h65.603c3.475 0 6.09 3.148 5.46 6.564l-11.259 60.794a5.56 5.56 0 0 1-5.46 4.545m-54.345-71.204a4.85 4.85 0 0 0-4.772 5.736l11.259 60.794a4.85 4.85 0 0 0 4.772 3.973h43.085a4.86 4.86 0 0 0 4.773-3.973l11.258-60.793c.55-2.988-1.736-5.737-4.772-5.737zm70.72 5.8h.008zm281.895-164.129a.35.35 0 0 1 .207-.45c5.04-1.856 7.405-7.325 5.419-12.174-2.002-4.887-7.699-7.365-12.696-5.524a.35.35 0 1 1-.242-.657c5.346-1.97 11.443.684 13.586 5.916 2.147 5.242-.438 11.112-5.825 13.096-.04.015-.383-.026-.45-.207m-197.381 92.371c-4.407-.963-6.975-5.153-6.02-9.183.974-4.12 5.258-6.711 9.547-5.774a.35.35 0 1 1-.148.683c-3.926-.854-7.831 1.5-8.718 5.252-.866 3.659 1.473 7.46 5.487 8.338a.35.35 0 0 1-.148.684m123.711-211.8a.35.35 0 0 1-.053-.492c2.516-3.124 2.154-7.676-.806-10.146-2.906-2.426-7.348-1.995-9.91 1.188a.35.35 0 0 1-.546-.44c2.824-3.507 7.72-3.944 10.906-1.285 3.25 2.713 3.655 7.702.901 11.122a.35.35 0 0 1-.492.053"/><path fill="#cad5ff" d="m539.768 217.5-3.246-5.629a34.8 34.8 0 0 0 3.77-10.84l6.035-2.4a2.33 2.33 0 0 0 1.47-2.301l-.433-7.411a2.33 2.33 0 0 0-1.726-2.118l-6.267-1.684a34.7 34.7 0 0 0-5.011-10.34l2.581-5.966a2.34 2.34 0 0 0-.599-2.662l-5.553-4.954a2.33 2.33 0 0 0-2.719-.267l-5.628 3.246a34.8 34.8 0 0 0-10.831-3.773l-2.402-6.045a2.33 2.33 0 0 0-2.305-1.463l-7.418.43a2.32 2.32 0 0 0-2.115 1.72l-1.692 6.286a34.7 34.7 0 0 0-10.328 5l-5.97-2.574a2.34 2.34 0 0 0-2.662.583l-4.95 5.563a2.33 2.33 0 0 0-.273 2.716l3.252 5.63a34.8 34.8 0 0 0-3.767 10.835l-6.041 2.411a2.32 2.32 0 0 0-1.467 2.296l.43 7.417a2.33 2.33 0 0 0 1.726 2.119l6.276 1.68a34.8 34.8 0 0 0 4.995 10.324l-2.571 5.979a2.33 2.33 0 0 0 .583 2.663l5.557 4.946c.749.661 1.846.78 2.715.274l5.631-3.252a34.6 34.6 0 0 0 10.838 3.776l2.412 6.04a2.32 2.32 0 0 0 2.295 1.468l7.418-.43a2.33 2.33 0 0 0 2.118-1.726l1.69-6.28a34.9 34.9 0 0 0 10.327-5.001l5.962 2.572c.93.4 2.005.16 2.663-.583l4.95-5.563a2.34 2.34 0 0 0 .28-2.713m-33.025-3.331c-10.559.613-19.61-7.45-20.222-18-.616-10.554 7.443-19.608 17.995-20.224 10.564-.612 19.618 7.447 20.234 18 .609 10.555-7.45 19.61-18.007 20.224"/><path d="M504.223 237.727a2.81 2.81 0 0 1-2.624-1.79l-2.308-5.778a35 35 0 0 1-10.469-3.647l-5.388 3.112a2.83 2.83 0 0 1-3.296-.332l-5.558-4.948a2.82 2.82 0 0 1-.71-3.237l2.461-5.72a35.3 35.3 0 0 1-4.825-9.972l-6.006-1.607a2.83 2.83 0 0 1-2.097-2.571l-.43-7.419a2.82 2.82 0 0 1 1.785-2.79l5.778-2.307a35.2 35.2 0 0 1 3.64-10.465l-3.113-5.39a2.82 2.82 0 0 1 .335-3.3l4.947-5.56a2.84 2.84 0 0 1 3.235-.71l5.712 2.464a35.2 35.2 0 0 1 9.977-4.831l1.619-6.016a2.82 2.82 0 0 1 2.568-2.09l7.418-.43a2.81 2.81 0 0 1 2.799 1.779l2.299 5.785a35.2 35.2 0 0 1 10.462 3.644l5.386-3.106a2.83 2.83 0 0 1 3.3.325l5.555 4.955a2.835 2.835 0 0 1 .728 3.23l-2.472 5.713a35.2 35.2 0 0 1 4.84 9.989l5.997 1.61a2.83 2.83 0 0 1 2.095 2.571l.433 7.413a2.82 2.82 0 0 1-1.787 2.796l-5.773 2.295a35.3 35.3 0 0 1-3.641 10.471l3.106 5.387.001.002a2.83 2.83 0 0 1-.342 3.294l-4.948 5.561a2.82 2.82 0 0 1-3.235.71l-5.706-2.461a35.3 35.3 0 0 1-9.976 4.83l-1.617 6.01a2.825 2.825 0 0 1-2.57 2.096l-7.418.43a3 3 0 0 1-.167.005m-15.407-12.288c.083 0 .166.02.24.062a34 34 0 0 0 10.68 3.72c.172.03.316.147.38.308l2.412 6.041a1.81 1.81 0 0 0 1.803 1.154l7.417-.43a1.83 1.83 0 0 0 1.664-1.355l1.69-6.282a.5.5 0 0 1 .343-.35 34.4 34.4 0 0 0 10.178-4.93.5.5 0 0 1 .488-.05l5.962 2.572c.732.315 1.57.131 2.091-.456l4.95-5.564a1.83 1.83 0 0 0 .22-2.13l-3.246-5.628a.5.5 0 0 1-.005-.49 34.3 34.3 0 0 0 3.715-10.685.5.5 0 0 1 .309-.38l6.036-2.399a1.825 1.825 0 0 0 1.155-1.81l-.433-7.41a1.83 1.83 0 0 0-1.355-1.663l-6.269-1.684a.5.5 0 0 1-.35-.342 34.2 34.2 0 0 0-4.938-10.191.5.5 0 0 1-.051-.488l2.58-5.967a1.83 1.83 0 0 0-.47-2.088l-5.557-4.955a1.83 1.83 0 0 0-2.134-.208l-5.63 3.246a.5.5 0 0 1-.49.006 34.2 34.2 0 0 0-10.674-3.719.5.5 0 0 1-.381-.308l-2.403-6.045a1.805 1.805 0 0 0-1.81-1.15l-7.417.43a1.82 1.82 0 0 0-1.662 1.348l-1.693 6.29a.5.5 0 0 1-.342.35 34.2 34.2 0 0 0-10.18 4.928.5.5 0 0 1-.487.052l-5.968-2.575a1.835 1.835 0 0 0-2.093.458l-4.947 5.561a1.82 1.82 0 0 0-.215 2.135l3.252 5.63c.088.15.09.336.007.489a34.2 34.2 0 0 0-3.713 10.678.5.5 0 0 1-.308.381l-6.042 2.412a1.82 1.82 0 0 0-1.153 1.804l.43 7.416a1.83 1.83 0 0 0 1.355 1.663l6.277 1.68a.5.5 0 0 1 .35.343 34.3 34.3 0 0 0 4.925 10.176.5.5 0 0 1 .05.487l-2.572 5.978a1.82 1.82 0 0 0 .46 2.094l5.554 4.945a1.83 1.83 0 0 0 2.13.215l5.635-3.253a.5.5 0 0 1 .25-.067m16.79-10.737a19.5 19.5 0 0 1-13.037-4.973 19.5 19.5 0 0 1-6.547-13.532c-.631-10.811 7.653-20.12 18.465-20.751 10.855-.629 20.131 7.66 20.762 18.47.623 10.814-7.666 20.123-18.477 20.752l-.03-.5.03.5q-.585.034-1.166.034m.03-38.29q-.543 0-1.09.032c-10.263.599-18.124 9.434-17.526 19.695a18.52 18.52 0 0 0 6.215 12.843 18.53 18.53 0 0 0 13.478 4.688c10.262-.597 18.13-9.432 17.538-19.696-.578-9.895-8.821-17.562-18.615-17.562M283.514 589.618H122.422a.35.35 0 0 1 0-.7h161.092a.35.35 0 0 1 0 .7m17.946-263.741a.35.35 0 0 1-.272-.128l-42.7-52.319a.35.35 0 0 1 .543-.442l42.7 52.318a.35.35 0 0 1-.272.571M140.858 155.34H110.36a.35.35 0 1 1 0-.7h30.498a.35.35 0 1 1 0 .7m-15.755 7.386H110.36a.35.35 0 1 1 0-.7h14.743a.35.35 0 1 1 0 .7m185.196 93.757a.35.35 0 0 1 .06-.491l17.33-13.536a.35.35 0 0 1 .431.552l-17.33 13.536a.35.35 0 0 1-.491-.06m-4.505-5.885a2.733 2.733 0 0 1-1.058-3.713 2.735 2.735 0 0 1 3.72-1.053 2.729 2.729 0 0 1-2.662 4.766m-.446-3.372a2.03 2.03 0 0 0 .788 2.76c.975.545 2.21.195 2.756-.78a2.03 2.03 0 0 0-.778-2.763 2.035 2.035 0 0 0-2.766.783"/></svg>