<svg xmlns="http://www.w3.org/2000/svg" viewBox="0 0 2500 2500"><path fill="#ffc1a4" d="M1161.72 1381.65s73.76 70.73 64.19 86.87c-8.78 14.8-33.95.03-33.95.03s19.62 17.67 10.77 28.84c-9.81 12.4-32.85-8.92-32.85-8.92s20.94 17.91 10.13 28.74c-12.95 12.97-33.53-9.38-33.53-9.38s8.42 27.66-17.61 21.3c-22.34-5.45-104.69-126.05-104.69-126.05l104.97-79.82"/><path fill="#060606" d="M1126.18 1411.05c-14.79 0-24.93-8.41-25.43-8.83a3.183 3.183 0 0 1-.38-4.48 3.183 3.183 0 0 1 4.48-.38c.12.1 12.44 10.19 28.68 6.5 16.34-3.73 25.19-23.3 25.28-23.5.71-1.6 2.59-2.33 4.19-1.62s2.33 2.59 1.62 4.19c-.41.92-10.26 22.69-29.68 27.12-3.05.71-5.99 1-8.76 1m65.78 60.69c-.82 0-1.65-.32-2.27-.96l-33.91-34.7a3.175 3.175 0 0 1 .05-4.49 3.196 3.196 0 0 1 4.5.05l33.91 34.7a3.175 3.175 0 0 1-.05 4.49c-.63.61-1.43.91-2.23.91m-22.07 19.91c-.88 0-1.76-.37-2.39-1.09l-31.69-36.21a3.17 3.17 0 0 1 .3-4.48 3.18 3.18 0 0 1 4.48.3l31.69 36.21a3.17 3.17 0 0 1-.3 4.48c-.61.53-1.35.79-2.09.79m-23.41 19.36c-.86 0-1.71-.34-2.34-1.03l-30.83-33.48a3.177 3.177 0 1 1 4.67-4.31l30.83 33.48a3.177 3.177 0 0 1-.18 4.49c-.61.58-1.38.85-2.15.85"/><path fill="#ffc1a4" d="m896.24 942.83 74.65 179.35 163.87 204.1-74.45 115.16-178.78-193.24a185.25 185.25 0 0 1-38.2-62.72L744.81 913.6z"/><path fill="#f7b094" d="m907.29 959.81-115.51 95.31-20.91-103.59z"/><path fill="#ffc1a4" d="m812.48 2082.51-9.64-91.8 122.92-7.65-2.93 110.17"/><path d="m923.39 2028.27-113.26 31.84-2.53-26.79z"/><path fill="#ff452d" d="M1024.24 2192.88c.02.19.02.41.01.6l-.38 22.29-217.34-3.71.38-21.75.11-6.96c2.54-43.49-1.17-106.37-1.17-106.37l127.51 2.89 1.99 15.07a56.4 56.4 0 0 0 15.19 31.65c8.14 8.48 18.87 14.42 31.01 16.54 24.66 3.64 42.84 24.9 42.69 49.75"/><path d="M1024.24 2192.88c.02.19.02.41.01.6l-.38 22.29-217.34-3.71.35-21.75h.03z"/><path fill="#060606" d="M916.38 2148.71c-1.11 0-2.21-.51-2.92-1.47-1.2-1.61-.86-3.89.75-5.08l19.88-14.75-28.9 2.94c-1.59.16-3.12-.75-3.73-2.23-.61-1.49-.17-3.2 1.08-4.21l18.43-14.86-28.88 2.71a3.615 3.615 0 0 1-3.95-3.28c-.19-2 1.28-3.77 3.28-3.96l40.89-3.84a3.627 3.627 0 0 1 2.61 6.44l-18.3 14.75 29.86-3.04c1.63-.16 3.16.78 3.75 2.3s.09 3.25-1.22 4.23L918.54 2148c-.65.48-1.41.71-2.16.71m25.91 18.36q-.645 0-1.29-.24a3.636 3.636 0 0 1-2.11-4.68c10.76-28.39 34.02-22.82 34.25-22.76 1.94.5 3.12 2.47 2.62 4.42a3.63 3.63 0 0 1-4.4 2.63c-.76-.18-17.29-3.84-25.68 18.29a3.61 3.61 0 0 1-3.39 2.34"/><path fill="#ffc1a4" d="m380.49 2040.66 10.08-91.75 121.73 18.63-26.25 107.03"/><path d="m500.39 2011.21-117.44 7.07 3.22-26.72z"/><path fill="#ff452d" d="M564 2193.48c-.02.19-.07.41-.12.59l-5.1 21.7L347.17 2166l4.99-21.17 1.58-6.78c11.72-41.96 21.44-104.19 21.44-104.19l123.99 29.9-1.25 15.15c-1 12.27 2 24.18 8.12 34.16 6.15 10.01 15.38 18.1 26.79 22.74 23.33 8.78 36.58 33.42 31.17 57.67"/><path d="M564 2193.48c-.02.19-.07.41-.12.59l-5.1 21.7L347.17 2166l4.96-21.18h.03z"/><path fill="#060606" d="M468.74 2127.5c-1.38 0-2.7-.79-3.31-2.14a3.625 3.625 0 0 1 1.81-4.8l22.55-10.19-28.87-3.26a3.63 3.63 0 0 1-3.17-2.97 3.63 3.63 0 0 1 1.95-3.88l21.17-10.61-28.8-3.48a3.63 3.63 0 0 1-3.17-4.04 3.61 3.61 0 0 1 4.04-3.17l40.77 4.93c1.59.19 2.87 1.4 3.14 2.98s-.52 3.15-1.95 3.87l-21.02 10.53 29.82 3.37c1.62.18 2.93 1.43 3.18 3.04s-.6 3.2-2.09 3.87l-34.58 15.63c-.47.21-.97.32-1.47.32m21.42 23.44c-.68 0-1.36-.19-1.98-.59a3.63 3.63 0 0 1-1.07-5.02c16.54-25.46 38.09-15.08 38.3-14.97a3.63 3.63 0 0 1 1.62 4.87 3.625 3.625 0 0 1-4.86 1.63c-.69-.33-16.08-7.44-28.98 12.42-.67 1.08-1.84 1.66-3.03 1.66"/><path fill="#0081ff" d="M954.88 2033.03H745.37l-47.08-456.86-52.81-204.16-58.61-226.59h196.38l92.6 360.17c4.02 15.68 7.4 31.5 10.06 47.46z"/><path d="m701.73 1347.53-3.44 228.63-52.81-204.15 14.28-11.64z"/><path fill="#0081ff" d="m656.71 1145.42 27.7 370.8a363.3 363.3 0 0 1-22.73 156.25l-114.52 345.8-190.64-29.98 129.91-408.2-26.68-434.69h196.96z"/><path fill="#fff" d="M661.69 1675.65a3.18 3.18 0 0 1-2.97-4.31c18.64-49.02 26.43-102.58 22.53-154.89l-19.5-260.99a3.18 3.18 0 0 1 2.93-3.41 3.173 3.173 0 0 1 3.41 2.93l19.5 260.99c3.98 53.23-3.95 107.73-22.92 157.62a3.19 3.19 0 0 1-2.98 2.06"/><path fill="#ff452d" d="m815.67 1201.25-22.43-376.28-346.38 10.48 2.52 380.71z"/><path fill="#ffc1a4" d="M605.44 894.31c65.18 1.32 57.82-60.2 32.88-84.13l-2.09-59.9-91.52-46.4-7.36 121.22c.01 0-2.46 67.78 68.09 69.21"/><path fill="#060606" d="M637.91 797.9c-9.88-4.12-39.18-17.89-47.33-39.52l46.1 5.16z"/><circle cx="636.53" cy="673.07" r="100.53" fill="#ffc1a4"/><path fill="#060606" d="M682.21 705.5c-1.28 0-2.39-.97-2.52-2.27a2.54 2.54 0 0 1 2.26-2.8c2.39-.26 4.86-.52 6.82-1.58 1.92-1.04 3.17-2.87 3.35-4.9.33-3.86-2.87-7.61-6.05-10.76l-17.77-17.63c-1-.99-1-2.6-.01-3.6s2.6-1 3.6-.01l17.77 17.63c4.01 3.98 8.05 8.86 7.53 14.81-.32 3.74-2.56 7.08-5.99 8.93-2.84 1.54-5.95 1.87-8.7 2.17-.1.01-.2.01-.29.01m-12.41 26.53c-.75 0-1.5-.33-2-.97-7.46-9.46-20.05-15.02-32.08-14.14-1.37.1-2.62-.95-2.72-2.35s.95-2.62 2.35-2.72c13.87-1.01 27.83 5.15 36.44 16.06.87 1.1.68 2.7-.42 3.57-.46.37-1.01.55-1.57.55m-30.53-63.09c2.26 4.82 6.81 7.48 10.16 5.95 3.36-1.57 4.29-6.76 2.08-11.58-2.25-4.87-6.8-7.53-10.16-5.95-3.35 1.53-4.29 6.72-2.08 11.58m50.81-24.21c2.26 4.82 6.81 7.48 10.16 5.95 3.36-1.57 4.29-6.76 2.08-11.58-2.25-4.87-6.8-7.53-10.16-5.95-3.35 1.53-4.29 6.72-2.08 11.58m35.22-77c-1.37 10.91-5.68 21.51-12.79 29.87-7.63 8.96-18.57 15.19-30.26 16.53-11.67 1.34-23.97-2.43-32.48-10.57-1.7 13.37-11.3 25.46-23.94 30.11s-30.54 3.59-40.47-5.53c.79 12.21 1.61 24.43 2.4 36.61.33 5.04-2.28 29.75-11.55 21.48-.24-.21-7.75-6.75-34.21-11.49-24.13-4.31 13.61 34.58 8.6 37.74-58.45 34.93-89.33-19.24-65.05-59.16 0 0-31.87-29.81-17.2-77.45 8.66-28.08 34.52-38.41 54.27-42.14 6.62-15.25 18.6-28.26 33.58-35.55 16.38-7.99 35.06-9.27 53.23-10.42 8.2-.52 16.38-1.03 24.58-1.55 5.86-.36 11.76-.73 17.62-.46 21.73 1.06 42.87 11.52 56.88 28.2 12.41 14.79 19.19 34.6 16.79 53.78"/><circle cx="541.92" cy="679.46" r="27.6" fill="#ffc1a4"/><path fill="#fff" d="M678.24 593.86c-1.67 0-3.34-.16-4.98-.49a3.18 3.18 0 0 1-2.48-3.75c.35-1.72 2.04-2.82 3.75-2.48 7.22 1.47 15.16-1.44 19.73-7.23 4.58-5.78 5.57-14.17 2.48-20.87a3.18 3.18 0 0 1 1.55-4.22c1.6-.74 3.48-.04 4.22 1.55 4.07 8.82 2.76 19.86-3.27 27.47-4.98 6.31-12.99 10.02-21 10.02m-76.41 37.42c-1.69 0-3.1-1.33-3.17-3.04a3.176 3.176 0 0 1 3.04-3.31c5.18-.22 10.53-.45 15.17-2.37 4.61-1.91 7.9-5.6 8.4-9.42a3.19 3.19 0 0 1 3.56-2.74c1.74.23 2.97 1.82 2.74 3.56-.8 6.12-5.5 11.67-12.27 14.47-5.68 2.35-11.87 2.61-17.33 2.85zm-110.84-7.98c-.54 0-1.08-.14-1.58-.42-9.11-5.22-11.71-16.51-10.25-25.39 1.5-9.1 6.54-17.01 10.99-23.99a3.173 3.173 0 0 1 4.39-.97c1.48.94 1.92 2.91.97 4.39-4.12 6.47-8.8 13.8-10.08 21.61-1.07 6.49.71 15.16 7.14 18.85 1.52.87 2.05 2.81 1.18 4.34a3.17 3.17 0 0 1-2.76 1.58m333.58 1300.27c-1.65 0-3.05-1.28-3.17-2.95l-26.99-376.05-22.52-139.14c-3.47-21.43-16.68-39.1-36.26-48.48s-41.63-8.6-60.5 2.13c-1.53.87-3.47.33-4.33-1.19a3.173 3.173 0 0 1 1.19-4.33c20.71-11.78 44.91-12.63 66.39-2.34s35.99 29.68 39.79 53.19l22.55 139.42 27.02 376.33a3.18 3.18 0 0 1-2.94 3.4c-.08 0-.15.01-.23.01m76.61 33.95H774.96c-1.76 0-3.18-1.42-3.18-3.18s1.42-3.18 3.18-3.18h126.22c1.76 0 3.18 1.42 3.18 3.18s-1.43 3.18-3.18 3.18m-388.12-600.8c-.85 0-1.7-.34-2.32-1.01a3.177 3.177 0 0 1 .15-4.49c13.98-13.06 23.34-31.45 25.68-50.43 2.34-18.99-2.26-39.09-12.64-55.17-.95-1.47-.53-3.44.95-4.39 1.47-.95 3.44-.53 4.39.95 11.17 17.3 16.14 38.95 13.61 59.39s-12.6 40.23-27.65 54.3c-.61.56-1.39.85-2.17.85m273.99-33.31c-.36 0-.73-.06-1.09-.19-14.76-5.4-26.83-17.42-32.29-32.15-5.46-14.74-4.14-31.72 3.54-45.43a3.18 3.18 0 1 1 5.55 3.11c-6.78 12.11-7.95 27.11-3.13 40.12s15.48 23.63 28.52 28.39c1.65.6 2.5 2.43 1.89 4.08a3.21 3.21 0 0 1-2.99 2.07m-309.14 575.2c-.38 0-.77-.07-1.14-.21a3.177 3.177 0 0 1-1.82-4.11l109.99-285.4c5.19-13.47 7.96-27.61 8.24-42.04l4.22-219.62a3.18 3.18 0 0 1 3.18-3.12h.06c1.76.03 3.15 1.48 3.12 3.24l-4.22 219.62c-.29 15.17-3.2 30.04-8.66 44.21l-109.99 285.4c-.5 1.26-1.7 2.03-2.98 2.03m43.08 58.91c-.16 0-.32-.01-.48-.04l-98-14.8a3.185 3.185 0 0 1-2.67-3.62 3.17 3.17 0 0 1 3.62-2.67l98 14.8c1.73.26 2.93 1.88 2.67 3.62a3.19 3.19 0 0 1-3.14 2.71"/><path fill="#ffc1a4" d="m361.04 830.53-65.72-6.09 189.06-171.12c-23.19-6.83-38.1-57.51-54.29-101.38L162.66 781.95c-28.35 16.04-45.49 46.46-44.51 79.02 1.3 43.3 36.68 88.73 79.67 94.04l164.07 7.62z"/><path fill="#ffc1a4" d="M430.09 551.94s26.63-34.32 38.3-40.49c11.66-6.18 25.39-1.49 25.39-1.49s10.25-14.6 22.22-17.08 19.93 5.08 19.93 5.08 7.66-14.7 22.19-13.13c14.52 1.58 46.53 22.33 49.2 30.12 2.02 5.88 1.97 14.44-9.57 15.06 0 0-2.56 10.37-14.17 10.61 0 0 3.92 11-12.13 14.85s-52.34-4.92-52.34-4.92 6.63 13.01-9.43 16.84-39.01 27.28-43.19 38.63c-6.43 17.44 17.89 47.29 17.89 47.29l-21.06 14.43z"/><path fill="#060606" d="M509.68 569.94c-1.15 0-2.19-.79-2.47-1.95a2.54 2.54 0 0 1 1.89-3.06c4.26-1.02 7.01-2.78 8.17-5.26 1.7-3.63-.4-7.92-.42-7.96a2.54 2.54 0 0 1 .29-2.72c.62-.77 1.62-1.13 2.58-.89.36.09 35.88 8.58 51.15 4.92 4.93-1.18 8.19-3.15 9.69-5.85 1.57-2.82.68-5.59.64-5.7-.26-.77-.14-1.62.33-2.28.46-.66 1.21-1.07 2.02-1.09 9.44-.2 11.67-8.34 11.76-8.69a2.56 2.56 0 0 1 2.33-1.91c3.52-.19 5.92-1.2 7.13-3 1.89-2.8.75-7.02.17-8.7-1.4-4.09-16.18-15.48-31.42-22.94a2.55 2.55 0 0 1-1.17-3.4 2.55 2.55 0 0 1 3.4-1.17c12.66 6.2 31.51 18.63 33.99 25.86 1.02 2.98 2.29 8.67-.77 13.19-1.9 2.82-5.03 4.52-9.33 5.07-1.59 3.91-5.62 9.25-13.11 10.5.09 1.81-.16 4.19-1.47 6.61-2.2 4.05-6.57 6.89-13.01 8.44-13.3 3.19-39.03-1.74-49.25-3.95.37 2.24.35 5.04-.9 7.77-1.84 3.98-5.75 6.7-11.62 8.1-.21.03-.41.06-.6.06"/><path fill="#060606" d="M519.11 553.1c-.19 0-.39-.02-.59-.07l-15.72-3.72c-1.37-.32-2.21-1.69-1.89-3.06s1.68-2.21 3.06-1.89l15.72 3.72a2.54 2.54 0 0 1 1.89 3.06 2.55 2.55 0 0 1-2.47 1.96m64.47-9.94h-.07a2.544 2.544 0 0 1-2.47-2.58c0-.24-.13-4.54-5.67-7.62-4.97-2.77-35.2-9.15-54.31-12.77a2.545 2.545 0 0 1-2.03-2.97 2.55 2.55 0 0 1 2.97-2.03c4.95.94 48.57 9.26 55.85 13.32 8.38 4.67 8.28 11.86 8.28 12.17a2.56 2.56 0 0 1-2.55 2.48m14.17-10.61c-.99 0-1.93-.58-2.34-1.54-2.03-4.75-5.78-8.45-10.54-10.44l-34.37-14.34a2.537 2.537 0 0 1-1.37-3.32c.54-1.3 2.03-1.91 3.32-1.37l34.37 14.34c6 2.5 10.7 7.17 13.26 13.13.55 1.29-.05 2.78-1.34 3.34-.32.14-.65.2-.99.2"/><path fill="#ff452d" d="m486.23 833.65-144.9-4.58-16.1 161.89h118.45c26.53 0 51.24-13.47 65.62-35.75 16.41-25.44 16.64-58.08.58-83.74z"/><path fill="#fff" d="M443.68 994.14c-1.76 0-3.18-1.42-3.18-3.18s1.42-3.18 3.18-3.18c25.56 0 49.09-12.82 62.95-34.3.95-1.47 2.92-1.9 4.39-.95 1.48.95 1.9 2.92.95 4.39-15.03 23.31-40.56 37.22-68.29 37.22"/><path fill="#f7b094" d="m341.33 829.07-40.09 130.74h27.09z"/><path d="m796.64 1201.98-331.98 41.92-3.08-31.51z"/><path fill="#4a4ddc" d="m1353.57 1695.39-97.31 65.22-106-145.58c-.03 0-.03-.03-.03-.03l-153.66-210.97c-25.3-34.74-16.64-83.53 19.06-107.47 35.7-23.93 84.14-13.4 106.65 23.18l221.14 359.15s.03.03.1.14z"/><path fill="#141323" d="m1353.57 1695.39-97.31 65.22-74.8-102.73c2.76 1.57 161.95 21.01 161.95 21.01s.03.03.1.14z"/><circle cx="1454.43" cy="1938.18" r="277.74" fill="#4a4ddc"/><circle cx="1454.43" cy="1938.18" r="228.93" fill="#fff"/><path fill="#141323" d="M1668.05 2020.51c-45.48 117.97-177.97 176.74-295.94 131.3-39.55-15.24-72.42-40.23-96.93-71.19 19.81 17.49 42.99 31.78 69.08 41.83 117.97 45.48 250.46-13.33 295.94-131.3 30.24-78.45 14.35-163.35-34.4-224.78 69.82 61.51 97.64 162.23 62.25 254.14"/><path fill="#fff" d="M1999 2069.14c-.3.79-.49 1.28-.6 1.5.08-.23.23-.75.6-1.5"/><path fill="#060f11" d="M1998.4 2073.82c-.4 0-.81-.08-1.2-.24a3.174 3.174 0 0 1-1.81-3.94l3.02.99-3-1.06c.11-.34.32-.99.76-1.87a3.175 3.175 0 0 1 5.81 2.55c-.36.93-.59 1.51-.72 1.78a3.2 3.2 0 0 1-2.86 1.79m0-3.18h.04z"/><path fill="#141323" d="M1899.62 503.21h50.93v1708.77h-50.93z"/><path fill="#ffd400" d="m1524.68 548.58 374.94 15.16v229.28l-375.73 71.85-151.65-163.98z"/><path fill="#060f11" d="M1622.1 779.47c-1.64 0-3.04-1.27-3.17-2.93a3.17 3.17 0 0 1 2.92-3.41c67.19-5.2 107.17-9.98 142.45-14.2 29.61-3.54 57.59-6.89 96.89-9.93a3.153 3.153 0 0 1 3.41 2.92 3.17 3.17 0 0 1-2.92 3.41c-39.17 3.03-67.08 6.37-96.62 9.9-35.34 4.23-75.39 9.02-142.71 14.23-.09.01-.17.01-.25.01m255.2-183.12c-.06 0-.13 0-.19-.01l-104.71-6.13a3.185 3.185 0 0 1-2.99-3.36c.1-1.75 1.64-3.09 3.36-2.99l104.71 6.13c1.75.1 3.09 1.61 2.99 3.36-.1 1.69-1.51 3-3.17 3m-109.89 19.19c-.06 0-.13 0-.19-.01l-61.7-3.6a3.185 3.185 0 0 1-2.99-3.36c.1-1.75 1.67-3.1 3.36-2.99l61.7 3.6c1.75.1 3.09 1.61 2.99 3.36-.1 1.7-1.5 3-3.17 3"/><path fill="#ff73ed" d="m2279.48 817.37-328.93 15.16v229.28l329.63 71.85 136.06-163.98z"/><path fill="#060f11" d="M2192.07 1048.26c-.09 0-.18 0-.28-.01-60.43-5.21-94.12-10-123.85-14.23-24.83-3.53-48.29-6.87-83.4-9.9a3.175 3.175 0 0 1-2.89-3.44 3.17 3.17 0 0 1 3.44-2.89c35.29 3.04 58.83 6.39 83.75 9.94 29.65 4.22 63.26 9 123.51 14.19 1.75.15 3.04 1.69 2.89 3.44a3.185 3.185 0 0 1-3.17 2.9m-221.49-183.12a3.178 3.178 0 0 1-.21-6.35l93.95-6.12a3.16 3.16 0 0 1 3.38 2.96 3.18 3.18 0 0 1-2.96 3.38l-93.95 6.12c-.07.01-.14.01-.21.01m98.59 19.19a3.178 3.178 0 0 1-.21-6.35l55.35-3.6c1.73-.14 3.26 1.21 3.38 2.96a3.184 3.184 0 0 1-2.96 3.38l-55.35 3.6c-.07.01-.14.01-.21.01m175.44 1330.83c-.42 0-.85-.09-1.27-.27a3.17 3.17 0 0 1-1.64-4.18c4.16-9.54 13.73-36.92 8.07-48.86-1.27-2.68-3.24-4.37-6.02-5.15-20.15-5.7-31.53 10.78-32 11.48a3.17 3.17 0 0 1-3.78 1.19 3.17 3.17 0 0 1-2-3.42c.02-.17 2.34-17.14-8.94-21.86-9.41-3.96-22.16 9.45-26.29 14.94a3.18 3.18 0 0 1-4.04.89 3.19 3.19 0 0 1-1.51-3.85c3.6-10.33-11.63-49.24-32.74-76.42-12.05-15.52-23.32-23.66-31.81-22.95-4.99.42-8.73 2.48-11.44 6.27-10.12 14.2-2.14 46.38-2.06 46.7.33 1.31-.21 2.7-1.34 3.44s-2.61.69-3.69-.15c-15.35-11.9-58.82-39.91-75.37-26.88-8.43 6.61-16.47 24.44-6.93 71.83a3.175 3.175 0 0 1-5.66 2.52c-10.23-13.8-32.07-20.52-46.41-18.82-4.3.51-11.91 2.28-14.54 8.44-7.97 18.57 12.2 60.08 12.41 60.5.77 1.58.12 3.48-1.45 4.25-1.58.77-3.48.12-4.25-1.45-.89-1.81-21.66-44.57-12.54-65.8 2.88-6.75 9.86-11.1 19.64-12.25 13.45-1.58 31.97 3.1 44.7 13.5-5.65-34.73-1.92-57.49 11.12-67.72 19.28-15.19 60.34 10.63 76.52 21.98-1.89-11.41-3.71-31.99 4.69-43.78 3.8-5.33 9.21-8.34 16.07-8.92 13.74-1.16 27.88 13.17 37.37 25.39 16.17 20.83 32.26 53.49 34.34 72.55 6.58-6.43 17.41-14.4 27.67-10.08 9.48 3.96 12.24 13.12 12.89 20.03 6.36-5.54 17.69-12.04 33.11-7.68 4.59 1.29 7.97 4.17 10.04 8.55 8.05 16.99-7.33 52.61-7.99 54.12-.53 1.2-1.7 1.92-2.93 1.92"/><path fill="#fff" d="M2091.79 2211.98s13.71-16.49 11.8-38.88c-1.92-22.35-38.36-24.27-38.36-24.27 8.94-30.06 1.92-69.1-30.06-79.32-25.59-8.19-33.59 2.48-35.77 7.03 4.4-11.76 4.54-73.57-19.19-76.88-38.95-5.43-65.45 76.52-65.45 76.52s-12.26-69.81-46.83-69.81c-34.53 0-64.93 146.93-64.93 146.93-12.14-25.59-75.48-48.62-97.2-21.75-21.76 26.86 19.16 80.44 19.16 80.44"/><path fill="#060f11" d="M1724.96 2215.16c-.96 0-1.9-.43-2.53-1.25-1.73-2.27-42.17-55.88-19.11-84.36 8.37-10.35 23.13-14.84 41.58-12.65 22.26 2.65 45.58 14.62 56.59 28.24 7.17-32.42 33.83-141.95 66.42-141.95 28.42 0 42.42 41.41 47.57 61.65 8.81-22.47 32.42-72.9 65.14-68.33 5.88.82 10.82 4.53 14.7 11.04 8.98 15.07 10.6 42.64 9.06 59.12 5.97-3.5 15.79-5.29 31.73-.19 32.47 10.38 41.1 47.94 33.15 79.54 10.01 1.24 35.72 6.41 37.46 26.8 2.01 23.42-11.93 40.47-12.52 41.18a3.173 3.173 0 0 1-4.47.41 3.174 3.174 0 0 1-.42-4.47c.13-.16 12.85-15.82 11.08-36.58-1.66-19.33-35.03-21.35-35.36-21.37a3.178 3.178 0 0 1-2.88-4.08c8.75-29.41 1.92-65.83-27.98-75.38-22.98-7.36-29.99 1.31-31.94 5.37a3.19 3.19 0 0 1-4.11 1.55 3.18 3.18 0 0 1-1.73-4.04c3.37-9.03 3.75-47.34-6.54-64.61-2.84-4.77-6.24-7.46-10.11-8-35.91-4.99-61.73 73.56-61.99 74.35a3.2 3.2 0 0 1-3.24 2.19 3.17 3.17 0 0 1-2.91-2.62c-.12-.67-12.19-67.19-43.7-67.19-26.2 0-53.51 104.23-61.81 144.4a3.18 3.18 0 0 1-2.73 2.51c-1.36.17-2.67-.56-3.25-1.79-6.75-14.24-32.39-28.65-55.97-31.45-16.18-1.92-28.94 1.74-35.88 10.33-19.95 24.64 18.82 75.99 19.21 76.51 1.07 1.39.8 3.39-.6 4.45-.56.45-1.23.67-1.91.67"/><path fill="#060f11" d="M1932.45 2215.16c-.08 0-.15 0-.23-.01a3.18 3.18 0 0 1-2.95-3.39c3.36-47.51 15.43-96.29 34-137.35.73-1.6 2.61-2.31 4.2-1.59 1.6.72 2.31 2.61 1.59 4.21-18.26 40.39-30.14 88.39-33.45 135.18a3.16 3.16 0 0 1-3.16 2.95m-51.25 0c-1.43 0-2.73-.98-3.09-2.43-6.36-26.17-10.88-60.94-12.11-93.01a3.18 3.18 0 0 1 3.05-3.3c1.85-.05 3.23 1.3 3.3 3.05 1.21 31.67 5.67 65.97 11.93 91.75.42 1.71-.63 3.42-2.34 3.84-.24.07-.49.1-.74.1m-78.16 0c-1.05 0-2.08-.52-2.68-1.47-10.75-16.84-26.88-30.2-45.43-37.62a3.177 3.177 0 0 1-1.77-4.13 3.174 3.174 0 0 1 4.13-1.77c19.77 7.91 36.97 22.15 48.43 40.11.94 1.48.51 3.44-.97 4.39-.54.32-1.13.49-1.71.49m187.47 0q-.315 0-.63-.06a3.17 3.17 0 0 1-2.49-3.74c5.07-25.34 12.86-43.25 22.72-65.93l1.31-3.02a3.177 3.177 0 1 1 5.83 2.53l-1.31 3.02c-10.09 23.2-17.38 39.97-22.32 64.64a3.174 3.174 0 0 1-3.11 2.56"/><path fill="#ff452d" d="m736.68 826.68 65.64-3.14c36.1-1.73 69.36 19.54 82.94 53.04l31.88 78.62-152.68 71.48z"/><path fill="#ffc1a4" d="m1134.76 1326.28 45.11 35.7c6.86 5.43 8.47 15.18 3.73 22.53l-19.23 29.8c-5.74 8.89-17.53 11.54-26.52 5.98-8.97-5.55-11.86-17.26-6.5-26.35l17.9-30.39-24.03-39.03z"/><path fill="#fff" d="M1823.11 383.23c.02-.23.04-.47.08-.7 3.58-27.15 27.77-47.43 55.13-46.54 4 .15 7.87.7 11.62 1.67 11.18-31.11 41.99-52.85 77.51-50.29 35.66 2.58 64.76 30.18 69.84 65.06 11.56-8.45 25.82-13.44 41.23-13.44 32.89 0 60.47 22.69 67.98 53.25"/><path fill="#060f11" d="M2146.52 395.43c-1.43 0-2.73-.97-3.08-2.42-7.36-29.93-34.05-50.83-64.9-50.83-14.26 0-27.87 4.44-39.35 12.83-.9.66-2.08.8-3.1.36a3.17 3.17 0 0 1-1.91-2.47c-4.9-33.67-33.05-59.9-66.93-62.35-32.72-2.37-63.25 17.46-74.29 48.19a3.18 3.18 0 0 1-3.79 2c-3.48-.9-7.16-1.43-10.94-1.57-25.75-.87-48.52 18.39-51.87 43.78-.05.3-.06.43-.07.57a3.185 3.185 0 0 1-3.45 2.87c-1.75-.16-3.04-1.71-2.87-3.45.03-.33.06-.65.12-.98 3.74-28.43 29.35-50.08 58.36-49.15 3.26.12 6.45.5 9.53 1.13 12.76-31.89 45.14-52.23 79.72-49.74 35.16 2.55 64.64 28.64 71.88 62.85 11.66-7.37 25.02-11.23 38.96-11.23 33.79 0 63.01 22.89 71.07 55.67.42 1.71-.62 3.43-2.33 3.84-.26.07-.51.1-.76.1"/><path fill="#fff" d="M2105.11 368.9c7.34 5.81 12.73 13.98 15.03 23.35"/><path fill="#060f11" d="M2120.14 395.43c-1.43 0-2.73-.97-3.08-2.42-2.09-8.48-7.03-16.16-13.92-21.62a3.17 3.17 0 0 1-.52-4.46 3.18 3.18 0 0 1 4.47-.52c7.99 6.33 13.73 15.24 16.15 25.08.42 1.7-.62 3.43-2.33 3.84-.26.07-.52.1-.77.1"/><path fill="#fff" d="M2078.53 359.66c4.3 0 8.46.63 12.38 1.81"/><path fill="#060f11" d="M2090.91 364.65c-.31 0-.61-.04-.92-.14-3.7-1.12-7.56-1.68-11.46-1.68-1.76 0-3.18-1.42-3.18-3.18 0-1.75 1.42-3.18 3.18-3.18 4.53 0 9 .66 13.29 1.95 1.68.51 2.63 2.28 2.13 3.96a3.17 3.17 0 0 1-3.04 2.27"/><path fill="#fff" d="M1846.51 389.77c0-16.57 13.44-30 30-30"/><path fill="#060f11" d="M1846.51 392.94c-1.76 0-3.18-1.42-3.18-3.18 0-18.29 14.88-33.18 33.17-33.18 1.76 0 3.18 1.42 3.18 3.18 0 1.75-1.42 3.18-3.18 3.18-14.79 0-26.82 12.03-26.82 26.82a3.16 3.16 0 0 1-3.17 3.18"/><path fill="#fff" d="M2011.24 347.88a51.9 51.9 0 0 1 2.39 15.6"/><path fill="#060f11" d="M2013.63 366.66c-1.76 0-3.18-1.42-3.18-3.18 0-5-.75-9.93-2.24-14.65-.53-1.67.4-3.46 2.07-3.99 1.67-.52 3.46.4 3.99 2.08a55.1 55.1 0 0 1 2.54 16.56c0 1.76-1.42 3.18-3.18 3.18"/><path fill="#fff" d="M1961.79 311.65c16.92 0 31.94 8.1 41.4 20.63"/><path fill="#060f11" d="M2003.19 335.46c-.96 0-1.91-.44-2.54-1.26-9.29-12.31-23.46-19.37-38.86-19.37-1.76 0-3.18-1.42-3.18-3.18 0-1.75 1.42-3.18 3.18-3.18 17.42 0 33.43 7.98 43.93 21.89 1.06 1.4.78 3.39-.62 4.45-.57.44-1.24.65-1.91.65"/><path fill="#fff" d="m907.29 476.39.09-.7c3.57-27.08 27.7-47.31 55-46.41 4 .13 7.86.7 11.6 1.66 11.14-31.04 41.88-52.72 77.3-50.16 37.68 2.72 68.02 33.45 70.32 71.16.91 14.89-2.48 28.94-9.04 41.02"/><path fill="#060f11" d="M1112.55 496.13c-.51 0-1.03-.12-1.51-.39a3.19 3.19 0 0 1-1.28-4.31c6.5-11.97 9.5-25.56 8.66-39.31-2.21-36.26-31.17-65.57-67.37-68.18-32.61-2.34-63.07 17.41-74.08 48.06a3.18 3.18 0 0 1-3.79 2c-3.54-.92-7.21-1.44-10.91-1.56-25.64-.83-48.41 18.33-51.74 43.65l-.08.67a3.17 3.17 0 0 1-3.54 2.77 3.18 3.18 0 0 1-2.77-3.54l.09-.72c3.76-28.53 29.32-50.15 58.25-49.18 3.2.11 6.39.48 9.51 1.12 12.73-31.81 44.99-52.09 79.51-49.61 39.37 2.84 70.86 34.71 73.26 74.14.91 14.94-2.35 29.71-9.42 42.73a3.16 3.16 0 0 1-2.79 1.66"/><path fill="#fff" d="M930.64 482.9c0-16.53 13.4-29.92 29.92-29.92"/><path fill="#060f11" d="M930.64 486.08c-1.76 0-3.18-1.42-3.18-3.18 0-18.25 14.85-33.1 33.1-33.1 1.76 0 3.18 1.42 3.18 3.18 0 1.75-1.42 3.18-3.18 3.18-14.75 0-26.74 12-26.74 26.74 0 1.76-1.43 3.18-3.18 3.18"/><path fill="#fff" d="M1045.62 404.99c16.87 0 31.85 8.08 41.29 20.58"/><path fill="#060f11" d="M1086.91 428.74c-.96 0-1.91-.44-2.54-1.26-9.27-12.27-23.39-19.31-38.76-19.31-1.76 0-3.18-1.42-3.18-3.18 0-1.75 1.42-3.18 3.18-3.18 17.37 0 33.35 7.96 43.83 21.84a3.175 3.175 0 0 1-2.53 5.09"/><path fill="#b7bef8" d="M977.16 868.61c-7.72-5.06-13.82-9.93-18.29-14.6q-6.705-7.02-8.46-14.82c-1.17-5.21-.76-10.86 1.22-16.96 1.98-6.11 5.44-12.92 10.37-20.45 5.18-7.91 10.15-13.94 14.89-18.1s9.73-6.75 14.97-7.75c5.23-1.01 10.89-.4 16.97 1.83 6.07 2.23 12.97 5.87 20.69 10.93 7.91 5.18 14.15 10.14 18.71 14.88s7.48 9.74 8.74 15.01c1.26 5.26.93 10.9-.99 16.91q-2.88 9.015-10.65 20.88c-4.93 7.53-9.8 13.42-14.61 17.68-4.8 4.25-9.87 6.85-15.2 7.8-5.33.94-11.08.27-17.25-2.02-6.16-2.31-13.2-6.04-21.11-11.22m187.3 242.2c-15.44-10.12-27.92-21.46-37.45-34.03s-16.19-25.82-19.99-39.74c-3.79-13.93-4.75-28.28-2.87-43.06 1.88-14.79 6.5-29.45 13.88-43.99l-53.6-38.35c-3.26-2.41-4.05-6.76-2.35-13.05s5.76-14.33 12.17-24.12c4.07-6.21 7.64-11.35 10.7-15.4s5.77-7.06 8.12-9.01c2.35-1.96 4.56-3.07 6.62-3.33 2.06-.27 4.19.18 6.38 1.35l68.33 41.13q9.225 5.64 14.13 10.47t6.36 10.02c.96 3.46.88 6.97-.24 10.54-1.13 3.56-3.04 7.42-5.76 11.56l-2.59 3.95c-6.54 9.98-10.59 19.64-12.13 28.99-1.55 9.34-1.23 18.1.96 26.26s6.15 15.67 11.89 22.52 12.65 12.93 20.75 18.24c9.04 5.92 18.16 10.08 27.36 12.47 9.19 2.39 18.22 2.79 27.08 1.19 8.85-1.61 17.3-5.36 25.34-11.26 8.04-5.91 15.51-14.13 22.42-24.67 6.29-9.6 10.9-18.7 13.83-27.27 2.93-8.58 4.99-16.25 6.19-23 1.19-6.76 1.99-12.49 2.39-17.21s1.22-8.02 2.45-9.9c.87-1.32 2.09-2.27 3.68-2.84 1.59-.58 3.76-.5 6.51.23s6.35 2.21 10.8 4.45 9.88 5.46 16.28 9.66c6.59 4.32 11.21 7.75 13.85 10.29 2.64 2.53 4.29 5.37 4.94 8.48s.52 8.14-.39 15.08q-1.365 10.41-5.34 23.55c-2.65 8.76-6.18 18.16-10.59 28.18-4.42 10.02-9.83 19.93-16.25 29.73-14.56 22.22-30.08 39.23-46.56 51.04s-33.2 19.35-50.16 22.65c-16.96 3.29-33.66 2.91-50.12-1.14-16.48-4.02-32.15-10.92-47.02-20.66m-1037.98 96.16c11.02-7.62 22.07-12.91 33.12-15.89q16.59-4.455 32.19-2.58c10.4 1.26 20.32 4.53 29.74 9.83 9.43 5.3 18.02 12.42 25.79 21.36l40.43-25.56q3.765-2.31 9.42 1.98c3.76 2.86 8.06 7.79 12.89 14.78 3.07 4.44 5.54 8.24 7.43 11.4q2.835 4.755 3.84 7.92c.67 2.12.82 3.91.43 5.36-.38 1.46-1.27 2.76-2.65 3.92l-46.33 34.71c-4.21 3.11-7.84 5.32-10.9 6.64s-5.89 1.83-8.47 1.54c-2.59-.3-4.93-1.31-7.02-3.04s-4.16-4.08-6.2-7.03l-1.95-2.82c-4.92-7.12-10.32-12.48-16.18-16.08-5.86-3.59-11.83-5.77-17.92-6.53-6.08-.76-12.21-.15-18.39 1.84q-9.255 2.97-17.94 8.97c-6.45 4.46-11.74 9.46-15.86 14.99s-6.85 11.49-8.2 17.88c-1.34 6.39-1.12 13.1.64 20.11 1.78 7.02 5.26 14.29 10.47 21.82 4.74 6.85 9.59 12.44 14.56 16.75s9.56 7.8 13.77 10.44c4.22 2.65 7.86 4.75 10.92 6.31 3.07 1.56 5.06 3.01 5.99 4.35.65.94.95 2.03.9 3.25-.05 1.23-.69 2.67-1.93 4.32s-3.22 3.67-5.95 6.05c-2.72 2.38-6.37 5.15-10.94 8.31-4.7 3.25-8.27 5.42-10.7 6.5s-4.78 1.42-7.05 1-5.62-1.88-10.03-4.39c-4.42-2.51-9.21-5.85-14.38-10.02-5.17-4.18-10.52-9.12-16.06-14.82-5.53-5.71-10.72-12.06-15.55-19.05-10.96-15.86-18.16-30.95-21.6-45.26s-3.94-27.62-1.52-39.92q3.63-18.45 14.46-33.39 10.8-14.94 26.73-25.95m214.05-59.76q8.265-5.715 14.82-8.31c4.37-1.73 8.46-2.27 12.28-1.63q5.73.96 11.07 5.46c3.56 3 7.2 7.19 10.92 12.56 3.9 5.65 6.6 10.63 8.11 14.96 1.5 4.33 1.87 8.39 1.12 12.19s-2.71 7.43-5.87 10.91-7.49 7.12-13.01 10.93q-8.475 5.85-15.12 8.52-6.66 2.67-12.48 1.77-5.835-.885-11.1-5.28-5.28-4.395-11.13-12.87c-3.72-5.37-6.35-10.26-7.89-14.65-1.55-4.39-1.91-8.52-1.09-12.36s2.84-7.52 6.07-11.05c3.22-3.53 7.66-7.25 13.3-11.15"/></svg>