<svg width="256" xmlns="http://www.w3.org/2000/svg" viewBox="0 0 512 512"><path fill="#814b97" d="m41.9 474.3 1.5 9.1c-2.9 1.1-5.7 1.9-8.6 2.4-1.9.3-3.7.5-5.6.5-.9 0-1.9-.1-2.9-.2-2.8-.2-5.3-.9-7.4-2.1-2.1-1.1-3.8-2.9-5.2-5.4-1.3-2.5-2-5.6-2-9.2v-28.1c0-4.4.6-7.8 1.9-10.1s3.2-4.2 5.7-5.8c2.6-1.5 5.7-2.2 9.4-2.2h1.1c4.1.2 7.8 1.1 11.3 2.9l-2.7 8.7c-2.7-1-5.6-1.5-8.8-1.5-2.4 0-4.4.7-5.9 2s-2.3 3-2.3 5.1v28.7c0 1 .1 2 .3 2.8s.6 1.5 1.1 2.1c.5.5 1 1 1.6 1.4.5.4 1.3.7 2.2.8q1.35.15 2.4.3c.6.1 1.5 0 2.7-.1 1.1-.2 2-.3 2.7-.4.6-.1 1.6-.3 2.8-.6s2-.5 2.5-.6c.4 0 1.2-.2 2.2-.5m44-33.1v28.1c0 5.9-1.8 10.2-5.4 13q-5.4 4.2-12.9 4.2c-5 0-9.3-1.4-13-4.2-3.6-2.8-5.5-7.1-5.5-13v-28.1c0-6 1.6-10.5 4.9-13.6s7.8-4.6 13.6-4.6 10.2 1.6 13.4 4.9c3.3 3.1 4.9 7.5 4.9 13.3m-9.6 26.2v-23.1c0-3.7-.6-6.5-1.7-8.3s-3.5-2.8-7-2.8c-3.6 0-5.9.9-7 2.7s-1.7 4.6-1.7 8.3v23.3q0 4.2 2.1 6.6t6.6 2.4c2.7 0 4.9-.8 6.4-2.5s2.3-3.9 2.3-6.6m69 18h-9.6V453l-10.2 32.3h-7.3L108.1 453v32.3h-9.6v-61.2h9.6l13.7 40.5 13.9-40.5h9.6zm27.4 0h-9.6v-51.7l-5.4-.2v-9.3h15zm56.8 0h-9.7L196.1 444v41.3h-9.6v-61.2h9.6l23.7 41.1v-41.1h9.7zm45.9 0h-9.1l-.5-.7c-3 1-5.7 1.6-7.9 1.6-5.1 0-9.5-1.5-13.1-4.4s-5.4-7.3-5.4-13v-27.4c0-7.5 2.5-12.7 7.6-15.8 2.6-1.5 5.7-2.2 9.4-2.2h1.1c4.1.2 7.8 1.1 11.3 2.9L266 435c-2.8-1-5.4-1.6-8-1.6q-4.2 0-6.6 1.5t-2.4 5.7V469c0 2.8.7 4.8 2.2 5.9s3.7 1.7 6.5 1.7c5.3 0 8-2.5 8-7.4v-.8h-5l-3.1-9.2h17.7v26.2zm32.9-15.6 10.3-1.5c.3 2.6 1.3 4.6 3.1 6.2s4.2 2.4 7.1 2.4c3.6 0 6.2-.8 7.9-2.4s2.5-3.3 2.5-5.2c0-2.3-.5-4.3-1.6-6q-1.65-2.55-4.2-4.2c-1.7-1.1-3.7-2.1-5.7-2.9-2.1-.9-4.2-1.8-6.2-2.8s-4-2-5.8-3.2c-1.7-1.2-3.2-2.8-4.2-4.8-1.1-2-1.6-4.3-1.6-7 0-4.1 1.7-7.6 5.1-10.6s8.3-4.5 14.6-4.5c4.8 0 9.1.9 12.8 2.6l-.5 1.6c-.3 1-.8 2.4-1.3 3.9q-.75 2.4-1.2 3.6c-4-1.3-7.2-1.9-9.6-1.9-3.3 0-5.8.6-7.3 1.7-1.4 1-2.1 2.4-2.1 3.9v.5c.2 1.5 1.3 2.9 3.4 4.2s4.6 2.5 7.5 3.8c2.9 1.2 5.7 2.6 8.6 4.2 2.8 1.6 5.2 3.8 7.2 6.7q3 4.35 3 10.2c0 5.2-1.7 9.5-5.2 12.8-3.4 3.4-8.7 5.1-15.7 5.1-6.4 0-11.3-1.7-15-5-3.9-3.2-5.8-7.1-5.9-11.4m88-28.6v28.1c0 5.9-1.8 10.2-5.4 13q-5.4 4.2-12.9 4.2c-5 0-9.3-1.4-13-4.2-3.6-2.8-5.5-7.1-5.5-13v-28.1c0-6 1.6-10.5 4.9-13.6s7.8-4.6 13.6-4.6 10.2 1.6 13.4 4.9c3.3 3.1 4.9 7.5 4.9 13.3m-9.6 26.2v-23.1c0-3.7-.6-6.5-1.7-8.3s-3.5-2.8-7-2.8c-3.6 0-5.9.9-7 2.7s-1.7 4.6-1.7 8.3v23.3q0 4.2 2.1 6.6t6.6 2.4c2.7 0 4.9-.8 6.4-2.5s2.3-3.9 2.3-6.6m56.7-26.2v28.1c0 5.9-1.8 10.2-5.4 13q-5.4 4.2-12.9 4.2c-5 0-9.3-1.4-13-4.2-3.6-2.8-5.5-7.1-5.5-13v-28.1c0-6 1.6-10.5 4.9-13.6s7.8-4.6 13.6-4.6 10.2 1.6 13.4 4.9c3.3 3.1 4.9 7.5 4.9 13.3m-9.6 26.2v-23.1c0-3.7-.6-6.5-1.7-8.3s-3.5-2.8-7-2.8c-3.6 0-5.9.9-7 2.7s-1.7 4.6-1.7 8.3v23.3q0 4.2 2.1 6.6t6.6 2.4c2.7 0 4.9-.8 6.4-2.5s2.3-3.9 2.3-6.6m65.2 18h-9.7L465.6 444v41.3H456v-61.2h9.6l23.7 41.1v-41.1h9.7z"/><path fill="#2e3032" d="M6 372.7h500V388H6z"/><path fill="#a37245" d="M35.6 129.2c0 59.6 23.7 113.7 62.2 153.4h316.5c38.5-39.7 62.2-93.8 62.2-153.4 0-31.7-6.7-61.9-18.8-89.1H54.4c-12.1 27.3-18.8 57.4-18.8 89.1"/><path fill="#fff" fill-rule="evenodd" d="m420.2 176.9-3.9 15.2c-.3 1.3.5 2.7 1.8 3l2.1.5c1.3.3 2.7-.5 3-1.8l3.9-15.2c.3-1.3-.5-2.7-1.8-3l-2.1-.5c-1.3-.3-2.7.5-3 1.8" clip-rule="evenodd"/><circle cx="427.8" cy="158.2" r="27.1" fill="#fff" fill-rule="evenodd" clip-rule="evenodd" transform="rotate(-75.564 427.775 158.18)"/><circle cx="427.8" cy="158.2" r="22.7" fill="#9e9e9e" fill-rule="evenodd" clip-rule="evenodd" transform="rotate(-75.564 427.756 158.186)"/><circle cx="427.8" cy="158.2" r="19.3" fill="#4e2b14" fill-rule="evenodd" clip-rule="evenodd" transform="rotate(-75.564 427.761 158.184)"/><path fill="#2e1a10" fill-rule="evenodd" d="M409.1 153.4c-1.1 4.3-.7 8.7 1 12.5 1.5 2.4 34.2-17.4 32.7-19.8-2.5-3.1-6-5.5-10.2-6.6-10.4-2.7-20.9 3.5-23.5 13.9" clip-rule="evenodd"/><path fill="#1f3d80" fill-rule="evenodd" d="m66.3 74.4 6.7 4.4c.3.2.4 0 .4-.3l-.4-2.6c-.1-.4-.3-.8-.6-1l-6.7-4.4c-.3-.2-.4 0-.4.3l.4 2.6c.1.4.3.8.6 1" clip-rule="evenodd"/><path fill="#fff" fill-rule="evenodd" d="m67.5 75.9 9.3 6.2c.4.2.8.2 1-.1l1.5-2.3c.2-.3.1-.8-.3-1l-9.3-6.2c-.4-.2-.8-.2-1 .1l-1.5 2.3c-.1.3 0 .8.3 1" clip-rule="evenodd"/><path fill="#fff" fill-rule="evenodd" d="m71.2 81.8 31.1 20.6c.9.6 2 .4 2.5-.3l3.6-5.5c.5-.8.2-1.8-.7-2.4l-31-20.6c-1.8-1.2-4.1-.2-4.5.3l-2.4 3.6c-.4.6-.3 3.1 1.4 4.3" clip-rule="evenodd"/><path fill="#6ebeeb" fill-rule="evenodd" d="m71.6 83.6 28.8 19.1c.6.4 1.4.3 1.8-.2l5.6-8.4c.4-.5.1-1.3-.5-1.7L78.5 73.3c-.6-.4-1.4-.3-1.8.2l-5.6 8.4c-.3.5-.1 1.3.5 1.7" clip-rule="evenodd"/><path fill="#2a4698" fill-rule="evenodd" clip-rule="evenodd" d="M72.15 83.93 79 73.594l27.843 18.448-6.849 10.337z"/><path fill="#fff" fill-rule="evenodd" clip-rule="evenodd" d="m57.119 134.057 71.054-33.135 46.87 100.51-71.054 33.134z"/><path fill="#2a4698" fill-rule="evenodd" clip-rule="evenodd" d="m73.17 149.81 58.003-27.049.845 1.813-58.003 27.048zm1.407 3.114 58.003-27.048.845 1.812-58.003 27.049zm1.495 3.078 58.003-27.05.846 1.814-58.004 27.048zm1.404 3.12 58.003-27.048.845 1.812-58.003 27.049zm1.498 3.073 58.003-27.049.845 1.813-58.003 27.049zm1.405 3.118 58.003-27.049.846 1.813-58.004 27.048zm1.406 3.117 58.003-27.048.846 1.813-58.004 27.048zm1.494 3.08 58.003-27.048.845 1.813-58.003 27.048zm1.424 3.145 29.002-13.524.845 1.813-29.002 13.524zm22.94 47.804 34.187-16.818.441.897-34.187 16.818zm-8.999-18.319 6.101-3.002 9.007 18.304-6.102 3.002zm10.386 3.412 6.102-3 5.604 11.397-6.103 3z"/><path fill="#2a4698" fill-rule="evenodd" clip-rule="evenodd" d="m118.011 208.015 6.102-3.002 3.708 7.537-6.101 3.002zm5.325-7.022 6.101-3.002 5.43 11.037-6.102 3.001zm8.573-.262 6.102-3.001 3.884 7.896-6.102 3.002zm18.763.568 3.05-1.501.442.897-3.05 1.5zm4.538-2.243 9.153-4.503.442.897-9.153 4.503z"/><path fill="#f3f2f2" d="M384.6 254.4c0 1.4-1.1 2.5-2.5 2.5H153c-1.4 0-2.5-1.1-2.5-2.5V106c0-1.4 1.1-2.5 2.5-2.5h229.1c1.4 0 2.5 1.1 2.5 2.5z"/><path fill="#434343" fill-rule="evenodd" d="M361.6 125.6h7.3c.8 0 1.5.7 1.5 1.5v5.4c0 .8-.7 1.5-1.5 1.5h-7.3c-.8 0-1.5-.7-1.5-1.5v-5.4c0-.8.7-1.5 1.5-1.5m.4 10.3h6.6c1 0 1.8.8 1.8 1.8v7.3c0 1-.8 1.8-1.8 1.8H362c-1 0-1.8-.8-1.8-1.8v-7.3c-.1-1 .8-1.8 1.8-1.8m0 12.9h6.6c1 0 1.8.8 1.8 1.8v7.3c0 1-.8 1.8-1.8 1.8H362c-1 0-1.8-.8-1.8-1.8v-7.3c-.1-.9.8-1.8 1.8-1.8m0 13h6.6c1 0 1.8.8 1.8 1.8v7.3c0 1-.8 1.8-1.8 1.8H362c-1 0-1.8-.8-1.8-1.8v-7.3c-.1-1 .8-1.8 1.8-1.8m0 12.9h6.6c1 0 1.8.8 1.8 1.8v7.3c0 1-.8 1.8-1.8 1.8H362c-1 0-1.8-.8-1.8-1.8v-7.3c-.1-1 .8-1.8 1.8-1.8m0 12.9h6.6c1 0 1.8.8 1.8 1.8v7.3c0 1-.8 1.8-1.8 1.8H362c-1 0-1.8-.8-1.8-1.8v-7.3c-.1-1 .8-1.8 1.8-1.8m-13.2-62h7.3c.8 0 1.5.7 1.5 1.5v5.4c0 .8-.7 1.5-1.5 1.5h-7.3c-.8 0-1.5-.7-1.5-1.5v-5.4c0-.8.6-1.5 1.5-1.5m-11.5 10.3h18.3c1.1 0 2 .9 2 2v7.1c0 1.1-.9 2-2 2h-18.3c-1.1 0-2-.9-2-2v-7.1c.1-1.1.9-2 2-2m8.4 12.9h9.9c1.1 0 2 .9 2 2v7.1c0 1.1-.9 2-2 2h-9.9c-1.1 0-2-.9-2-2v-7.1c0-1.1.9-2 2-2m-9.8 13h19.7c1.1 0 2 .9 2 2v7.1c0 1.1-.9 2-2 2h-19.7c-1.1 0-2-.9-2-2v-7.1c0-1.2.9-2 2-2m13.2 12.9h6.6c1 0 1.8.8 1.8 1.8v7.3c0 1-.8 1.8-1.8 1.8h-6.6c-1 0-1.8-.8-1.8-1.8v-7.3c0-1 .8-1.8 1.8-1.8m0 12.9h6.6c1 0 1.8.8 1.8 1.8v7.3c0 1-.8 1.8-1.8 1.8h-6.6c-1 0-1.8-.8-1.8-1.8v-7.3c0-1 .8-1.8 1.8-1.8m-12.2-62h6.3c.8 0 1.5.7 1.5 1.5v5.4c0 .8-.7 1.5-1.5 1.5h-6.3c-.8 0-1.5-.7-1.5-1.5v-5.4c0-.8.6-1.5 1.5-1.5m-12.1 0h6.3c.8 0 1.5.7 1.5 1.5v5.4c0 .8-.7 1.5-1.5 1.5h-6.3c-.8 0-1.5-.7-1.5-1.5v-5.4c0-.8.6-1.5 1.5-1.5m-12.1 0h6.3c.8 0 1.5.7 1.5 1.5v5.4c0 .8-.7 1.5-1.5 1.5h-6.3c-.8 0-1.5-.7-1.5-1.5v-5.4c0-.8.7-1.5 1.5-1.5m-12.1 0h6.3c.8 0 1.5.7 1.5 1.5v5.4c0 .8-.7 1.5-1.5 1.5h-6.3c-.8 0-1.5-.7-1.5-1.5v-5.4c0-.8.7-1.5 1.5-1.5m-12.1 0h6.3c.8 0 1.5.7 1.5 1.5v5.4c0 .8-.7 1.5-1.5 1.5h-6.3c-.8 0-1.5-.7-1.5-1.5v-5.4c0-.8.7-1.5 1.5-1.5m-12.1 0h6.3c.8 0 1.5.7 1.5 1.5v5.4c0 .8-.7 1.5-1.5 1.5h-6.3c-.8 0-1.5-.7-1.5-1.5v-5.4c0-.8.7-1.5 1.5-1.5m-12.1 0h6.3c.8 0 1.5.7 1.5 1.5v5.4c0 .8-.7 1.5-1.5 1.5h-6.3c-.8 0-1.5-.7-1.5-1.5v-5.4c0-.8.7-1.5 1.5-1.5m-12.1 0h6.3c.8 0 1.5.7 1.5 1.5v5.4c0 .8-.7 1.5-1.5 1.5h-6.3c-.8 0-1.5-.7-1.5-1.5v-5.4c0-.8.7-1.5 1.5-1.5m-12.1 0h6.3c.8 0 1.5.7 1.5 1.5v5.4c0 .8-.7 1.5-1.5 1.5h-6.3c-.8 0-1.5-.7-1.5-1.5v-5.4c0-.8.7-1.5 1.5-1.5m-12 0h6.3c.8 0 1.5.7 1.5 1.5v5.4c0 .8-.7 1.5-1.5 1.5h-6.3c-.8 0-1.5-.7-1.5-1.5v-5.4c0-.8.6-1.5 1.5-1.5m-12.1 0h6.3c.8 0 1.5.7 1.5 1.5v5.4c0 .8-.7 1.5-1.5 1.5H216c-.8 0-1.5-.7-1.5-1.5v-5.4c0-.8.6-1.5 1.5-1.5m-12.1 0h6.3c.8 0 1.5.7 1.5 1.5v5.4c0 .8-.7 1.5-1.5 1.5h-6.3c-.8 0-1.5-.7-1.5-1.5v-5.4c0-.8.6-1.5 1.5-1.5m-12.1 0h6.3c.8 0 1.5.7 1.5 1.5v5.4c0 .8-.7 1.5-1.5 1.5h-6.3c-.8 0-1.5-.7-1.5-1.5v-5.4c0-.8.7-1.5 1.5-1.5m-12.1 0h6.3c.8 0 1.5.7 1.5 1.5v5.4c0 .8-.7 1.5-1.5 1.5h-6.3c-.8 0-1.5-.7-1.5-1.5v-5.4c0-.8.7-1.5 1.5-1.5m-13.6 0h7.3c.8 0 1.5.7 1.5 1.5v5.4c0 .8-.7 1.5-1.5 1.5h-7.3c-.8 0-1.5-.7-1.5-1.5v-5.4c0-.8.7-1.5 1.5-1.5m158.2 10.3h6.5c1 0 1.8.8 1.8 1.8v7.4c0 1-.8 1.8-1.8 1.8h-6.5c-1 0-1.8-.8-1.8-1.8v-7.4c0-1 .8-1.8 1.8-1.8m-13.1 0h6.5c1 0 1.8.8 1.8 1.8v7.4c0 1-.8 1.8-1.8 1.8h-6.5c-1 0-1.8-.8-1.8-1.8v-7.4c0-1 .8-1.8 1.8-1.8m-13.2 0h6.5c1 0 1.8.8 1.8 1.8v7.4c0 1-.8 1.8-1.8 1.8H298c-1 0-1.8-.8-1.8-1.8v-7.4c0-1 .9-1.8 1.8-1.8m-13.1 0h6.5c1 0 1.8.8 1.8 1.8v7.4c0 1-.8 1.8-1.8 1.8h-6.5c-1 0-1.8-.8-1.8-1.8v-7.4c0-1 .8-1.8 1.8-1.8m-13.1 0h6.5c1 0 1.8.8 1.8 1.8v7.4c0 1-.8 1.8-1.8 1.8h-6.5c-1 0-1.8-.8-1.8-1.8v-7.4c0-1 .8-1.8 1.8-1.8m-13.1 0h6.5c1 0 1.8.8 1.8 1.8v7.4c0 1-.8 1.8-1.8 1.8h-6.5c-1 0-1.8-.8-1.8-1.8v-7.4c0-1 .8-1.8 1.8-1.8m-13.1 0h6.5c1 0 1.8.8 1.8 1.8v7.4c0 1-.8 1.8-1.8 1.8h-6.5c-1 0-1.8-.8-1.8-1.8v-7.4c0-1 .8-1.8 1.8-1.8m-13.1 0h6.5c1 0 1.8.8 1.8 1.8v7.4c0 1-.8 1.8-1.8 1.8h-6.5c-1 0-1.8-.8-1.8-1.8v-7.4c0-1 .8-1.8 1.8-1.8m-13.2 0h6.5c1 0 1.8.8 1.8 1.8v7.4c0 1-.8 1.8-1.8 1.8h-6.5c-1 0-1.8-.8-1.8-1.8v-7.4c0-1 .9-1.8 1.8-1.8m-13.1 0h6.5c1 0 1.8.8 1.8 1.8v7.4c0 1-.8 1.8-1.8 1.8h-6.5c-1 0-1.8-.8-1.8-1.8v-7.4c0-1 .8-1.8 1.8-1.8m-13.1 0h6.5c1 0 1.8.8 1.8 1.8v7.4c0 1-.8 1.8-1.8 1.8h-6.5c-1 0-1.8-.8-1.8-1.8v-7.4c0-1 .8-1.8 1.8-1.8m-13.1 0h6.5c1 0 1.8.8 1.8 1.8v7.4c0 1-.8 1.8-1.8 1.8H180c-1 0-1.8-.8-1.8-1.8v-7.4c0-1 .8-1.8 1.8-1.8m-13.5 0h6.6c1 0 1.8.8 1.8 1.8v7.3c0 1-.8 1.8-1.8 1.8h-6.6c-1 0-1.8-.8-1.8-1.8v-7.3c-.1-1 .7-1.8 1.8-1.8m.1 12.9h13.6c1.1 0 2 .9 2 2v7.1c0 1.1-.9 2-2 2h-13.6c-1.1 0-2-.9-2-2v-7.1c0-1.1.9-2 2-2m0 13h16.2c1.1 0 2 .9 2 2v7.1c0 1.1-.9 2-2 2h-16.2c-1.1 0-2-.9-2-2v-7.1c0-1.2.9-2 2-2m0 12.9h23.2c1.1 0 2 .9 2 2v7.1c0 1.1-.9 2-2 2h-23.2c-1.1 0-2-.9-2-2v-7.1c0-1.1.9-2 2-2m0 12.9h9.6c1.1 0 2 .9 2 2v7.1c0 1.1-.9 2-2 2h-9.6c-1.1 0-2-.9-2-2v-7.1c0-1.1.9-2 2-2m19.1-38.8h7c1.1 0 1.9.9 1.9 1.9v7.2c0 1.1-.9 1.9-1.9 1.9h-7c-1.1 0-1.9-.9-1.9-1.9v-7.2c0-1 .9-1.9 1.9-1.9m13.4 0h7c1.1 0 1.9.9 1.9 1.9v7.2c0 1.1-.9 1.9-1.9 1.9h-7c-1.1 0-1.9-.9-1.9-1.9v-7.2c0-1 .8-1.9 1.9-1.9m13.4 0h7c1.1 0 1.9.9 1.9 1.9v7.2c0 1.1-.9 1.9-1.9 1.9h-7c-1.1 0-1.9-.9-1.9-1.9v-7.2c-.1-1 .8-1.9 1.9-1.9m13.3 0h7c1.1 0 1.9.9 1.9 1.9v7.2c0 1.1-.9 1.9-1.9 1.9h-7c-1.1 0-1.9-.9-1.9-1.9v-7.2c0-1 .9-1.9 1.9-1.9m13.4 0h7c1.1 0 1.9.9 1.9 1.9v7.2c0 1.1-.9 1.9-1.9 1.9h-7c-1.1 0-1.9-.9-1.9-1.9v-7.2c0-1 .8-1.9 1.9-1.9m13.4 0h7c1.1 0 1.9.9 1.9 1.9v7.2c0 1.1-.9 1.9-1.9 1.9h-7c-1.1 0-1.9-.9-1.9-1.9v-7.2c-.1-1 .8-1.9 1.9-1.9m13.3 0h7c1.1 0 1.9.9 1.9 1.9v7.2c0 1.1-.9 1.9-1.9 1.9h-7c-1.1 0-1.9-.9-1.9-1.9v-7.2c0-1 .9-1.9 1.9-1.9m13.4 0h7c1.1 0 1.9.9 1.9 1.9v7.2c0 1.1-.9 1.9-1.9 1.9h-7c-1.1 0-1.9-.9-1.9-1.9v-7.2c0-1 .8-1.9 1.9-1.9m13.3 0h7c1.1 0 1.9.9 1.9 1.9v7.2c0 1.1-.9 1.9-1.9 1.9h-7c-1.1 0-1.9-.9-1.9-1.9v-7.2c0-1 .9-1.9 1.9-1.9m13.4 0h7c1.1 0 1.9.9 1.9 1.9v7.2c0 1.1-.9 1.9-1.9 1.9h-7c-1.1 0-1.9-.9-1.9-1.9v-7.2c0-1 .8-1.9 1.9-1.9m13.4 0h7c1.1 0 1.9.9 1.9 1.9v7.2c0 1.1-.9 1.9-1.9 1.9h-7c-1.1 0-1.9-.9-1.9-1.9v-7.2c-.1-1 .8-1.9 1.9-1.9m13.3 0h7c1.1 0 1.9.9 1.9 1.9v7.2c0 1.1-.9 1.9-1.9 1.9h-7c-1.1 0-1.9-.9-1.9-1.9v-7.2c0-1 .9-1.9 1.9-1.9m-143.2 13h7c1.1 0 1.9.9 1.9 1.9v7.2c0 1.1-.9 1.9-1.9 1.9h-7c-1.1 0-1.9-.9-1.9-1.9v-7.2c-.1-1.1.8-1.9 1.9-1.9m13.3 0h7c1.1 0 1.9.9 1.9 1.9v7.2c0 1.1-.9 1.9-1.9 1.9h-7c-1.1 0-1.9-.9-1.9-1.9v-7.2c0-1.1.9-1.9 1.9-1.9m13.4 0h7c1.1 0 1.9.9 1.9 1.9v7.2c0 1.1-.9 1.9-1.9 1.9h-7c-1.1 0-1.9-.9-1.9-1.9v-7.2c0-1.1.8-1.9 1.9-1.9m13.4 0h7c1.1 0 1.9.9 1.9 1.9v7.2c0 1.1-.9 1.9-1.9 1.9h-7c-1.1 0-1.9-.9-1.9-1.9v-7.2c-.1-1.1.8-1.9 1.9-1.9m13.3 0h7c1.1 0 1.9.9 1.9 1.9v7.2c0 1.1-.9 1.9-1.9 1.9h-7c-1.1 0-1.9-.9-1.9-1.9v-7.2c0-1.1.9-1.9 1.9-1.9m13.4 0h7c1.1 0 1.9.9 1.9 1.9v7.2c0 1.1-.9 1.9-1.9 1.9h-7c-1.1 0-1.9-.9-1.9-1.9v-7.2c-.1-1.1.8-1.9 1.9-1.9m13.3 0h7c1.1 0 1.9.9 1.9 1.9v7.2c0 1.1-.9 1.9-1.9 1.9h-7c-1.1 0-1.9-.9-1.9-1.9v-7.2c0-1.1.9-1.9 1.9-1.9m13.4 0h7c1.1 0 1.9.9 1.9 1.9v7.2c0 1.1-.9 1.9-1.9 1.9h-7c-1.1 0-1.9-.9-1.9-1.9v-7.2c0-1.1.8-1.9 1.9-1.9m13.4 0h7c1.1 0 1.9.9 1.9 1.9v7.2c0 1.1-.9 1.9-1.9 1.9h-7c-1.1 0-1.9-.9-1.9-1.9v-7.2c-.1-1.1.8-1.9 1.9-1.9m13.3 0h7c1.1 0 1.9.9 1.9 1.9v7.2c0 1.1-.9 1.9-1.9 1.9h-7c-1.1 0-1.9-.9-1.9-1.9v-7.2c0-1.1.9-1.9 1.9-1.9m13.4 0h7c1.1 0 1.9.9 1.9 1.9v7.2c0 1.1-.9 1.9-1.9 1.9h-7c-1.1 0-1.9-.9-1.9-1.9v-7.2c0-1.1.8-1.9 1.9-1.9m-126.6 12.9h7c1.1 0 1.9.9 1.9 1.9v7.1c0 1.1-.9 1.9-1.9 1.9h-7c-1.1 0-1.9-.9-1.9-1.9v-7.1c-.1-1 .8-1.9 1.9-1.9m13.3 0h7c1.1 0 1.9.9 1.9 1.9v7.1c0 1.1-.9 1.9-1.9 1.9h-7c-1.1 0-1.9-.9-1.9-1.9v-7.1c0-1 .9-1.9 1.9-1.9m13.4 0h7c1.1 0 1.9.9 1.9 1.9v7.1c0 1.1-.9 1.9-1.9 1.9h-7c-1.1 0-1.9-.9-1.9-1.9v-7.1c0-1 .8-1.9 1.9-1.9m13.3 0h7c1.1 0 1.9.9 1.9 1.9v7.1c0 1.1-.9 1.9-1.9 1.9h-7c-1.1 0-1.9-.9-1.9-1.9v-7.1c0-1 .9-1.9 1.9-1.9m13.4 0h7c1.1 0 1.9.9 1.9 1.9v7.1c0 1.1-.9 1.9-1.9 1.9h-7c-1.1 0-1.9-.9-1.9-1.9v-7.1c0-1 .8-1.9 1.9-1.9m13.4 0h7c1.1 0 1.9.9 1.9 1.9v7.1c0 1.1-.9 1.9-1.9 1.9h-7c-1.1 0-1.9-.9-1.9-1.9v-7.1c-.1-1 .8-1.9 1.9-1.9m13.3 0h7c1.1 0 1.9.9 1.9 1.9v7.1c0 1.1-.9 1.9-1.9 1.9h-7c-1.1 0-1.9-.9-1.9-1.9v-7.1c0-1 .9-1.9 1.9-1.9m13.4 0h7c1.1 0 1.9.9 1.9 1.9v7.1c0 1.1-.9 1.9-1.9 1.9h-7c-1.1 0-1.9-.9-1.9-1.9v-7.1c0-1 .8-1.9 1.9-1.9m13.4 0h7c1.1 0 1.9.9 1.9 1.9v7.1c0 1.1-.9 1.9-1.9 1.9h-7c-1.1 0-1.9-.9-1.9-1.9v-7.1c-.1-1 .8-1.9 1.9-1.9m13.3 0h7c1.1 0 1.9.9 1.9 1.9v7.1c0 1.1-.9 1.9-1.9 1.9h-7c-1.1 0-1.9-.9-1.9-1.9v-7.1c0-1 .9-1.9 1.9-1.9m13.4 0h12.6c1.1 0 2 .9 2 2v7.1c0 1.1-.9 2-2 2h-12.6c-1.1 0-2-.9-2-2v-7.1c.1-1.1.9-2 2-2m-147.2 12.9h7c1.1 0 1.9.9 1.9 1.9v7.1c0 1.1-.9 1.9-1.9 1.9h-7c-1.1 0-1.9-.9-1.9-1.9v-7.1c-.1-1 .8-1.9 1.9-1.9m13.3 0h7c1.1 0 1.9.9 1.9 1.9v7.1c0 1.1-.9 1.9-1.9 1.9h-7c-1.1 0-1.9-.9-1.9-1.9v-7.1c0-1 .9-1.9 1.9-1.9m13.4 0h7c1.1 0 1.9.9 1.9 1.9v7.1c0 1.1-.9 1.9-1.9 1.9h-7c-1.1 0-1.9-.9-1.9-1.9v-7.1c0-1 .8-1.9 1.9-1.9m13.4 0h60.3c1.1 0 1.9.9 1.9 1.9v7.1c0 1.1-.9 1.9-1.9 1.9H223c-1.1 0-1.9-.9-1.9-1.9v-7.1c-.1-1 .8-1.9 1.9-1.9m66.8 0h7c1.1 0 1.9.9 1.9 1.9v7.1c0 1.1-.9 1.9-1.9 1.9h-7c-1.1 0-1.9-.9-1.9-1.9v-7.1c-.1-1 .8-1.9 1.9-1.9m13.3 0h7c1.1 0 1.9.9 1.9 1.9v7.1c0 1.1-.9 1.9-1.9 1.9h-7c-1.1 0-1.9-.9-1.9-1.9v-7.1c0-1 .9-1.9 1.9-1.9m13.4 0h12.6c1.1 0 2 .9 2 2v7.1c0 1.1-.9 2-2 2h-12.6c-1.1 0-2-.9-2-2v-7.1c.1-1.1 1-2 2-2m19.7 0h6.6c1 0 1.8.8 1.8 1.8v7.3c0 1-.8 1.8-1.8 1.8h-6.6c-1 0-1.8-.8-1.8-1.8v-7.3c0-1 .8-1.8 1.8-1.8" clip-rule="evenodd"/><path fill="#d5d5d4" fill-rule="evenodd" d="M235.8 208h61.4c.9 0 1.7.8 1.7 1.7v29.5c0 .9-.8 1.7-1.7 1.7h-61.4c-.9 0-1.7-.8-1.7-1.7v-29.5c0-.9.8-1.7 1.7-1.7m-1.3 35.2H265c.2 0 .4.2.4.4v6.1c0 .2-.2.4-.4.4h-30.5c-.2 0-.4-.2-.4-.4v-6.1c0-.3.2-.4.4-.4m33.5 0h30.5c.2 0 .4.2.4.4v6.1c0 .2-.2.4-.4.4H268c-.2 0-.4-.2-.4-.4v-6.1c.1-.3.2-.4.4-.4" clip-rule="evenodd"/><path fill="#434343" fill-rule="evenodd" d="M135.3 25.6h263.9c6.3 0 8.3 3.4 5.7 8.2l-22.1 67.8H151.5l-19.7-63.7c-4.4-8.1-3.5-12.3 3.5-12.3" clip-rule="evenodd"/><path fill="#d5d5d4" fill-rule="evenodd" d="M168.5 97h9.2c.6 0 1.1.6 1.1 1.2v12.6c0 .7-.5 1.2-1.1 1.2h-9.2c-.6 0-1.1-.6-1.1-1.2V98.2c.1-.7.6-1.2 1.1-1.2m188.6 0h9.2c.6 0 1.1.6 1.1 1.2v12.6c0 .7-.5 1.2-1.1 1.2h-9.2c-.6 0-1.1-.6-1.1-1.2V98.2c0-.7.5-1.2 1.1-1.2" clip-rule="evenodd"/><path fill="#fff" fill-rule="evenodd" clip-rule="evenodd" d="M267.9 37.4v54.3H376l16.1-54.3z"/><path fill="#e2e2e1" fill-rule="evenodd" clip-rule="evenodd" d="M267.9 37.4v54.3H159.8l-16.1-54.3z"/><path fill="#498cca" d="m166.3 83.7 1.3 4.3h42.9v-4.3zm-3.3-11 1.3 4.3h46.2v-4.3zm118.8-10.6H159.9l1.2 4.3h119.5zm3-9.9H156.9l1.3 4.3h125.3zm3.3-11.1H154v1.1l.9 3.2h131.9z"/><path fill="#fcd6b7" fill-rule="evenodd" clip-rule="evenodd" d="m343.7 247.7 8.5 24.4-6.3 6.3-32.3-2.4-5-14.2zm-33-28.3-4.1 1.3c-2.1.7-4.5-.5-5.2-2.6l-17.7-54.2c-.7-2.1.5-4.5 2.6-5.2l4.1-1.3c2.1-.7 4.5.5 5.2 2.6l17.7 54.2c.7 2.1-.4 4.5-2.6 5.2m14.2 5.4-3.8 1.2c-2 .6-4.1-.5-4.8-2.5l-16.7-53.1c-.6-2 .5-4.1 2.5-4.8l3.8-1.2c2-.6 4.1.5 4.8 2.5l16.7 53.1c.6 2-.5 4.1-2.5 4.8"/><path fill="#f2bf96" fill-rule="evenodd" d="m275.4 215.3 17.1 30.2c1.7 3.1 11.4 13 14.6 11.5s-.1-11.7-1.9-14.8L291 219.6c-5.9-9.4-12.3-6.3-15.6-4.3" clip-rule="evenodd"/><path fill="#fcd6b7" fill-rule="evenodd" d="m287.2 176.1 10.2 31.5c1.6-5.4 10-5.4 12.5.1.9-5.7 8.8-6.4 12-1.9 1.7-5.1 10.1-4.8 12 1l8.8 26.7c2.5 7.5 1.6 18.5-.4 23.3-5.7 14.5-25.4 13-31.9 7.7-5-4.1-9.1-6.5-10.5-10.4l-25.4-74c-3.1-9.4 10.2-11.8 12.7-4" clip-rule="evenodd"/><path fill="#f2bf96" fill-rule="evenodd" d="M297.5 208q.15-.75.6-1.2c1.6 5.1 4.1 13.8 4.1 13.8s-3.4-8.7-4.7-12.5zm12.1-3.6c.5.5 1 1.2 1.4 1.9.1-.4.1-.7.3-1 1.6 5 3.6 11.2 3.6 11.2s-3.4-7.4-5.3-12.1" clip-rule="evenodd"/><path fill="#fcd6b7" fill-rule="evenodd" d="m332 211.2-3.2 1c-1.7.5-3.5-.4-4-2.1l-8.8-28.4c-.5-1.7.4-3.5 2.1-4l3.2-1c1.7-.5 3.5.4 4 2.1l8.8 28.4c.5 1.7-.4 3.5-2.1 4" clip-rule="evenodd"/><path fill="#fff" fill-rule="evenodd" d="m283.5 181.3-2.8 1c-1.5.5-3.1-.3-3.7-1.8l-1-2.8c-.5-1.5.3-3.1 1.8-3.7l2.8-1c1.5-.5 3.1.3 3.7 1.8l1 2.8c.5 1.5-.4 3.2-1.8 3.7m9.6-13.5-2.8 1c-1.5.5-3.1-.3-3.7-1.8l-1-2.8c-.5-1.5.3-3.1 1.8-3.7l2.8-1c1.5-.5 3.1.3 3.7 1.8l1 2.8c.5 1.6-.3 3.2-1.8 3.7m15.8 7.1-2.8 1c-1.5.5-3.1-.3-3.7-1.8l-1-2.8c-.5-1.5.3-3.1 1.8-3.7l2.8-1c1.5-.5 3.1.3 3.7 1.8l1 2.8c.5 1.5-.3 3.1-1.8 3.7m15.1 10.9-2.5.9c-1.3.5-2.8-.3-3.2-1.6l-.9-2.5c-.5-1.3.3-2.8 1.6-3.2l2.5-.9c1.3-.5 2.8.3 3.2 1.6l.9 2.5c.4 1.3-.3 2.7-1.6 3.2" clip-rule="evenodd"/><path fill="#f2bf96" fill-rule="evenodd" clip-rule="evenodd" d="m288.9 192.8-6.4 2.3-.2-.1-.1-.1.1-.2 6.5-2.4.2.1v.2zm11.7-11.3-8.1 2.9-.2-.1-.1-.1.1-.2 8.1-3 .2.1.1.2zm12.7 3-6.4 2.3-.2-.1-.1-.1.1-.3 6.5-2.3.2.1v.2zm15.2 9-6.5 2.3-.2-.1v-.1l.1-.2 6.4-2.4.2.1.1.2z"/><path fill="#fff" fill-rule="evenodd" d="m275.8 215.3-.3.2 4.3 7.6.3-.1c.7-.3.5-2-.5-3.7l-.8-1.5c-1.1-1.8-2.4-2.9-3-2.5" clip-rule="evenodd"/><path fill="#f2bf96" fill-rule="evenodd" d="M325.7 213s-1.8-5.9-3.4-11.1c-.2.3-.3.6-.4.9-.3-.4-.7-.8-1-1.2 2.1 5.2 4.8 11.4 4.8 11.4" clip-rule="evenodd"/><path fill="#eaeaea" fill-rule="evenodd" clip-rule="evenodd" d="m329.504 263.798 23.962-8.721 10.295 28.285-23.963 8.72z"/><path fill="#fff" fill-rule="evenodd" clip-rule="evenodd" d="m306.086 272.305 23.492-8.55 10.295 28.285-23.493 8.55z"/><path fill="#46b173" fill-rule="evenodd" d="m358.5 265.7-49 17.4 19.7 54.1c16.6-5.9 32.3-13.6 46.9-23.1z" clip-rule="evenodd"/><path fill="#26ab69" fill-rule="evenodd" d="m358.5 265.7-24.9 8.8 19.2 52.8c8.1-3.9 15.9-8.4 23.3-13.2z" clip-rule="evenodd"/><path fill="#fcd6b7" fill-rule="evenodd" clip-rule="evenodd" d="m168.3 249.6-8.5 24.4 6.3 6.3 32.3-2.4 5-14.2zm33-28.3 4.1 1.3c2.1.7 4.5-.5 5.2-2.6l17.7-54.2c.7-2.1-.5-4.5-2.6-5.2l-4.1-1.3c-2.1-.7-4.5.5-5.2 2.6l-17.7 54.2c-.7 2.1.4 4.5 2.6 5.2m-14.2 5.4 3.8 1.2c2 .6 4.1-.5 4.8-2.5l16.7-53.1c.6-2-.5-4.1-2.5-4.8l-3.8-1.2c-2-.6-4.1.5-4.8 2.5l-16.7 53.1c-.6 2 .5 4.1 2.5 4.8"/><path fill="#f2bf96" fill-rule="evenodd" d="m236.6 217.2-17.1 30.2c-1.7 3.1-11.4 13-14.6 11.5s.1-11.7 1.9-14.8l14.2-22.7c5.9-9.3 12.3-6.2 15.6-4.2" clip-rule="evenodd"/><path fill="#fcd6b7" fill-rule="evenodd" d="m224.8 178-10.2 31.5c-1.6-5.4-10-5.4-12.5.1-.9-5.7-8.8-6.4-12-1.9-1.7-5.1-10.1-4.8-12 1l-8.8 26.7c-2.5 7.5-1.6 18.5.4 23.3 5.7 14.5 25.4 13 31.9 7.7 5-4.1 9.1-6.5 10.5-10.4l25.4-74c3.1-9.4-10.2-11.7-12.7-4" clip-rule="evenodd"/><path fill="#f2bf96" fill-rule="evenodd" d="M214.5 209.9v.1c-1.3 3.7-4.7 12.5-4.7 12.5s2.5-8.8 4.1-13.8q.45.6.6 1.2m-17.3 8.6s2-6.2 3.6-11.2c.1.3.2.7.3 1 .3-.8.8-1.4 1.4-1.9-2 4.6-5.3 12.1-5.3 12.1" clip-rule="evenodd"/><path fill="#fcd6b7" fill-rule="evenodd" d="m180 213.1 3.2 1c1.7.5 3.5-.4 4-2.1l8.8-28.4c.5-1.7-.4-3.5-2.1-4l-3.2-1c-1.7-.5-3.5.4-4 2.1l-8.8 28.4c-.5 1.7.5 3.5 2.1 4" clip-rule="evenodd"/><path fill="#fff" fill-rule="evenodd" d="m228.5 183.2 2.8 1c1.5.5 3.1-.3 3.7-1.8l1-2.8c.5-1.5-.3-3.1-1.8-3.7l-2.8-1c-1.5-.5-3.1.3-3.7 1.8l-1 2.8c-.5 1.5.4 3.2 1.8 3.7m-9.6-13.5 2.8 1c1.5.5 3.1-.3 3.7-1.8l1-2.8c.5-1.5-.3-3.1-1.8-3.7l-2.8-1c-1.5-.5-3.1.3-3.7 1.8l-1 2.8c-.5 1.6.3 3.2 1.8 3.7m-15.8 7.1 2.8 1c1.5.5 3.1-.3 3.7-1.8l1-2.8c.5-1.5-.3-3.1-1.8-3.7l-2.8-1c-1.5-.5-3.1.3-3.7 1.8l-1 2.8c-.5 1.5.3 3.1 1.8 3.7M188 187.7l2.5.9c1.3.5 2.8-.3 3.2-1.6l.9-2.5c.5-1.3-.3-2.8-1.6-3.2l-2.5-.9c-1.3-.5-2.8.3-3.2 1.6l-.9 2.5c-.4 1.3.3 2.7 1.6 3.2" clip-rule="evenodd"/><path fill="#f2bf96" fill-rule="evenodd" clip-rule="evenodd" d="m223.1 194.7 6.4 2.4.2-.2.1-.1-.1-.2-6.5-2.4-.2.1v.2zm-11.7-11.3 8.1 2.9.2-.1.1-.1-.1-.2-8.1-3-.2.1-.1.2zm-12.7 3 6.4 2.3.2-.1.1-.1-.1-.3-6.5-2.3-.2.1v.2zm-15.2 9 6.5 2.3.2-.1v-.1l-.1-.2-6.4-2.4-.2.1-.1.2z"/><path fill="#fff" fill-rule="evenodd" d="m236.2 217.2.3.2-4.3 7.6-.3-.1c-.7-.3-.5-2 .5-3.7l.8-1.5c1.1-1.8 2.4-2.9 3-2.5" clip-rule="evenodd"/><path fill="#f2bf96" fill-rule="evenodd" d="M186.3 214.9s2.7-6.2 4.9-11.3c-.4.3-.7.7-1 1.2-.1-.3-.2-.6-.4-.9-1.7 5.2-3.5 11-3.5 11" clip-rule="evenodd"/><path fill="#eaeaea" fill-rule="evenodd" clip-rule="evenodd" d="m148.11 285.308 10.295-28.285 23.962 8.721-10.294 28.285z"/><path fill="#fff" fill-rule="evenodd" clip-rule="evenodd" d="m172.056 293.982 10.294-28.285 23.492 8.55-10.294 28.285z"/><path fill="#46b173" fill-rule="evenodd" d="M136.5 314.4c14.6 9.4 30.3 17.1 46.9 23l19.1-52.4-49-17.4z" clip-rule="evenodd"/><path fill="#26ab69" fill-rule="evenodd" d="M136.5 314.4q11.25 7.2 23.4 13.2l18.6-51.2-24.9-8.8z" clip-rule="evenodd"/></svg>