<svg xmlns="http://www.w3.org/2000/svg" viewBox="0 0 150 150"><path d="M103.03 31.621c.32.066.662-.282.762-.778.1-.494-.078-.95-.399-1.016s-.66.282-.76.777.077.95.397 1.017m-3.88-1.663c-.32-.066-.659.282-.759.776-.1.496.076.951.397 1.017.32.067.661-.281.762-.777.1-.494-.079-.95-.4-1.016m.945 3.229c-.027.332.078.633.285.825.243.224.582-.14.34-.367-.306-.283-.05-.755.436-1.999.03-.073.059-.148.097-.187a.25.25 0 1 0-.357-.35c-.15.154-.175.277-.601 1.357-.085.213-.18.457-.2.721m.742 2.239a.25.25 0 1 0-.33.375c.627.55 1.831.07 2.491-.425-.19.535-.694.868-1.235.941-.321.044-.273.525.068.496.502-.068.97-.313 1.286-.672.347-.393.51-.923.435-1.418a.25.25 0 0 0-.433-.13 3.04 3.04 0 0 1-1.54.91c-.234.054-.556.087-.742-.077m-57.962 84.97a.25.25 0 0 0 .014.5h.013l22.236-1.249a.25.25 0 0 0 .236-.263c-.009-.14-.134-.25-.264-.237zm24.58-15.97 5.58-3.001a.25.25 0 0 0 .055-.401c-2.356-2.244-4.548-4.805-6.517-7.612-.088-.124-.17-.26-.258-.386l-1.25-12.374-4.496.464c-.096-.357-.334-.723-.553-1.018l2.209-2.845c.375.116.903.23 1.152-.121.805-1.12-3.645-4.332-4.459-3.211-.263.364.044.877.32 1.234l-2.15 2.772c-2.282-.853-3.264.598-1.618 2.51l-2.827 1.485-12.978 1.328 3.34 33.272 25.41-2.597zm5.041-3.279-17.388 9.354c-6-7.45-10.286-14.79-13.096-22.427l13.814-7.26c.29.283.179.171.28.266l.004.004.002.002.031.025c-.42.677-.9 1.443-1.242 1.996l.224.173c.479-.442 1.153-1.07 1.745-1.609.833.522 2.013 1.109 2.962.856 1.887 4.143 4.015 7.904 6.332 11.173a51.5 51.5 0 0 0 6.332 7.447M59.324 74.214q.024-.035.132-.036c.295 0 1.041.22 2.005.914 1.196.862 1.59 1.636 1.51 1.748-.002.004-.02.016-.069.024-.604.08-2.445-.908-3.312-2.067-.288-.387-.28-.565-.266-.583m2.412 2.854-2.812 3.64c-.086.031-.542-.131-1.175-.62-.655-.504-.93-.91-.95-.972l2.776-3.58a7.4 7.4 0 0 0 2.16 1.532m-4.97 1.274-.362.466c-.534.687 1.637 2.294 2.402 2.394.184.025.366-.015.478-.161l.412-.531c1.308 1.87-.576 2.02-2.5.778a5 5 0 0 1-.749-.573q-.002-.002-.005-.002l-.002-.004c-1.687-1.47-1.855-3.092.326-2.367"/><path d="M57.81 87.325a.25.25 0 0 0-.328-.13l-8.902 3.823a.25.25 0 1 0 .197.46l8.903-3.825a.25.25 0 0 0 .13-.328m1.538 3.251-8.904 3.823a.25.25 0 1 0 .198.46l8.903-3.824a.25.25 0 1 0-.197-.46"/><path d="m120.835 124.853 1.406-5.907-4.98-1.375c-.072-.01-.123-.061-.164-.122a.28.28 0 0 1-.01-.204l2.078-5.998-4.756-2.017a.25.25 0 0 1-.143-.326l2.2-5.5-4.522-2.943c-.102-.07-.143-.193-.102-.305l2.2-5.958-4.563-3.127a.255.255 0 0 1-.081-.326l2.984-5.764-4.033-3.81a.27.27 0 0 1-.01-.366.27.27 0 0 1 .366-.01l4.166 3.941a.26.26 0 0 1 .05.306l-2.963 5.734 4.532 3.106c.092.071.133.194.092.306l-2.19 5.958 4.522 2.943c.102.071.143.193.102.305l-2.18 5.47 4.746 2.006c.123.05.184.193.143.315l-2.067 5.969 4.95 1.364a.26.26 0 0 1 .182.306l-1.405 5.947 5.927-.936c-6.915-15.065-12.3-37.523-13.095-49.817l.03-2.885a.24.24 0 0 0 .004-.351l-.03-12.974-.407-12.005c-.089-2.406-2.616-4.33-4.964-4.223l-2.223.081-.386-3.567c2.027.897 4.784-1.424 4.66-3.878 2.952-1.32 3.215-5.436.412-7.123.54-.703.835-1.548.784-2.455-.133-2.21-2.271-3.87-4.777-3.717-1.191.071-2.26.55-3.035 1.273-.53-1.11-1.65-1.843-2.872-1.762-1.67.102-2.953 1.64-2.841 3.432v.071c-1.813.459-3.096 2.17-2.984 4.125a4.01 4.01 0 0 0 1.728 3.058c-.133 2.935-.261 6.606 2.274 8.357l-.13 3.662c-1.924.142-4.418.818-5.88 2.064h-.002c-3.431 2.451-7.472 4.148-11.703 4.928V19.373c0-2.324-1.9-4.346-4.235-4.506l-3.894-.278a4 4 0 0 0-.666-.115l-47.979-3.463c-2.454-.173-4.46 1.63-4.46 4.013V128c0 2.383 2.006 4.186 4.46 4.023l30.35-2.197-1.02 3.371 18.056 5.423 1.039-3.435-.185-.056 1.313-4.344 3.58 1.778a276 276 0 0 1 1.313-3.178c-.045.023-.113.002-.163-.01-12.96-6.46-12.257-6.04-12.323-6.172l-.072.192-34.886 2.309c-1.872.096-3.198-1.211-3.198-2.786V20.096c0-1.595 1.356-2.89 3.197-2.786l11.207.742 3.404 3.46c.35.355.978.642 1.43.667l12.347.703c.438.025 1.045-.187 1.384-.498l3.152-2.894 9.405.622c1.577.093 2.86 1.439 2.86 2.998v27.503c-3.68.072-7.035-.658-9.714-2.108-.038-.021-.078-.015-.119-.015-.02-.023-.03-.054-.059-.07l-2.333-1.196L65 44.707c-.029-1.305-2.267-1.283-2.241.021l.03 1.109-.465-.284c-.16-3.728.023-7.553.727-11.418a.25.25 0 0 0-.057-.208c-.05-.058-.138-.074-.197-.087l-6.221.203c.657-.91.488-2.109-.163-2.95-1.396-1.78-4.059-1.152-4.137 1.045l-.94.735c-2.06-1.453-4.125-.876-3.968 1.503l-3.822-1.906a63 63 0 0 0-1.266 1.963l-5.61.262a.25.25 0 0 0-.237.225c-.374 3.681-.557 8.315-.483 12.158a95 95 0 0 0-3.148 9.58l4.324 2.114c-.004.025-.013.05-.009.076a90.4 90.4 0 0 0 3.166 13.011.25.25 0 0 0 .239.173h.011c28.845-1.399 27.1-1.184 27.237-1.384a.25.25 0 0 0 .027-.223c-1.534-4.315-3.107-9.241-4.182-14.548 4.425 2.218 8.645 3.613 12.553 4.147-.04.361.024.677.178.89-.406.392-.534 1.348-.213 1.824-.183.206-.28.513-.318.786-.093.668.125 1.155.543 1.214l.934.127v33.88c-3.618 7.833-6.968 15.86-10.097 24.102.19-.096.075-.024 4.664 2.22l4.257-3.381c-3.122-4.296-3.151-4.165-3.096-4.36.032-.192-.106.015 5.459-3.584l-2.485-4.532a.25.25 0 0 1 .092-.346l5.122-2.964-1.72-5.103a.26.26 0 0 1 .111-.295l5.418-3.33-1.64-5.276a.25.25 0 0 1 .133-.305l5.917-2.679-.804-5.49a.245.245 0 0 1 .173-.274l5.856-1.864-.978-5.968a.26.26 0 0 1 .214-.295c.153-.02.265.07.295.213l1.009 6.182a.265.265 0 0 1-.184.286l-5.856 1.863.805 5.47c.02.111-.04.213-.143.264l-5.886 2.669 1.63 5.244a.256.256 0 0 1-.103.296l-5.418 3.32 1.721 5.112a.25.25 0 0 1-.112.306l-5.092 2.933 2.485 4.522c.061.122.03.265-.081.336l-5.327 3.402 3.045 4.145a.245.245 0 0 1-.05.346l-4.268 3.381c7.76 3.875 7.225 3.56 7.353 3.687 5.714-13.454 14.472-30.462 22.131-43.966.845 11.743 3.605 28.67 11.519 41.002zM93.738 67.138c8.951 0 15.512-3.474 19.938-10.497l.074 14.04-16.91-1.118c-.1-.078-.17-.092-.279-.019l-4.423-.292.066-2.15c.518.02 1.032.036 1.534.036m7.066 3.187-.182 2.568-3.886-.231.185-2.593zm4.463.295-.178 2.514c0 .01.008.016.009.026l-3.978-.237.182-2.565zm-9.03 2.012-4.206-.25.05-1.24-.002-.003.001-.003.043-1.385 4.3.285zm9.35.537.179-2.516 3.755.249c-.158 2.62-.217 2.34-.13 2.514l-3.814-.228c.002-.007.01-.011.01-.02m8.134.505-3.926-.234c.103-.155.012.108.224-2.505l3.728.246zm-52.444 52.632c.013-.1.137-.193.27-.206.392-.026.88.402 1.119.721-.372.026-1.439-.116-1.389-.515m2.228-1.253c.111-.214.343-.432.61-.434h.002c.204 0 .244.1.229.3-.04.504-.37.963-.663 1.367a1.3 1.3 0 0 1-.33.327q-.001-.17-.007-.336c-.012-.407-.03-.86.159-1.224m-.602 2.286c.664 1.553.404 1.959.786 1.959a.25.25 0 0 0 .246-.297 9 9 0 0 0-.524-1.728q.989-.109 2.02-.069c.101.464.175.946.22 1.434a.25.25 0 0 0 .248.228l.023-.001a.25.25 0 0 0 .226-.271 12 12 0 0 0-.208-1.364c.688.05 1.398.145 2.14.289l4.136 2.055-1.425 4.573-14.406-4.325c2.354-1.348 4.407-2.167 6.518-2.483m10.019 7.448-1.653-.496 1.4-4.492 1.53.76zm1.54-115.174-42.328-2.8c-1.96-.14-3.729 1.273-3.729 3.283v102.822c0 1.983 1.735 3.425 3.73 3.284l34.66-2.294q-.48 1.251-.946 2.503l.736.366c-.91-.101-1.78-.118-2.63-.062.043-.049.093-.08.134-.136.314-.436.705-.978.755-1.622.04-.548-.282-.838-.728-.838h-.006c-.418.004-.829.28-1.048.703-.237.455-.232.955-.217 1.437-1.626-1.677-2.886.304-1.43.86-1.56.402-3.137 1.082-4.863 2.04l-28.147 2.024c-2.401.147-4.316-1.51-4.316-3.722V15.553c0-2.222 1.924-3.867 4.315-3.722l49.2 3.534c2.08.143 3.771 1.94 3.771 4.008v30.846a27 27 0 0 1-3.584.377V23.11c0-1.82-1.494-3.389-3.33-3.497m-20.09 10.942c1.852 0 2.887 2.53 1.442 3.556-.81.583-1.947.268-2.579-.552-.992-1.284-.324-3.004 1.136-3.004m-2.367 6.129 1.087-.848c.24.55.374 1.097.375 1.575zM53.8 34.65l-2.148 1.675c-.22.165-.726-.132-1.135-.661-.404-.524-.56-1.081-.35-1.245l2.161-1.687A2.71 2.71 0 0 0 53.8 34.65m-2.878-1.456-1.063.83c-.449.35-.32 1.011.037 1.61l-2.01-1c-.325-2.073 1.237-2.635 3.036-1.44m-7.305 9.909c.06-.133.214-.194.336-.133l7.261 3.249c.123.061.184.214.123.336a.24.24 0 0 1-.235.153.4.4 0 0 1-.102-.02l-7.25-3.25a.26.26 0 0 1-.133-.335m5.448 7.872c.123.061.184.214.123.336a.24.24 0 0 1-.224.153c-.041 0-.072-.01-.112-.02l-7.252-3.25c-.122-.06-.183-.213-.122-.335.05-.133.204-.184.336-.133zm-12.157-15.79 5.043-.236c-2.132 3.438-3.948 7.083-5.517 10.917-.019-3.482.154-7.434.474-10.682M40.7 71.522a90 90 0 0 1-3.01-12.278c14.008 6.775 13.253 6.557 13.47 6.443a.25.25 0 0 0 .13-.186c.497-3.627 1.471-7.337 2.872-11.102l5.062-.089a.25.25 0 0 0-.005-.5c-.1 0-4.977.084-4.876.086a66 66 0 0 1 1.956-4.559l2.252-.037c.138-.002.248-.117.246-.254s-.107-.269-.254-.246l-2.002.033a79 79 0 0 1 4.306-7.798.25.25 0 0 0-.1-.357l-6.78-3.374c0-.026-.01-.057-.012-.084-.035-.601-.171-1.053-.415-1.604-.015-.034-.02-.067-.036-.1l.854-.667c.62.138 1.277-.017 1.684-.29l6.461-.21c-.67 3.82-.84 7.597-.678 11.278a.23.23 0 0 0 .006.142c.423 9.09 2.93 17.57 5.38 24.505zm21.647-25.37c.48.258.612.474.827.355a.25.25 0 0 0 .125-.224l-.041-1.567c-.011-.466.642-.585 1-.388a.43.43 0 0 1 .241.39l.071 2.667a.25.25 0 0 0 .136.216L67.1 48.83l-3.683 5.997a66 66 0 0 1-1.07-8.673m5.2 2.902c7.816 4.071 19.035 1.758 26.322-3.448l.006-.01c.003-.002.008 0 .012-.003 1.427-1.228 3.956-1.877 5.829-1.977.029-.002.047-.024.073-.035.032-.013.066-.019.09-.044.02-.02.023-.05.035-.078.013-.029.037-.051.038-.084.1-4.09.253-4.097.028-4.242-2.328-1.488-2.26-4.87-2.197-7.336 0-1.09.167-2.705.56-3.95.217-.707.62-1.264 1.123-1.566.484.741 1.31 1.3 2.306 1.553 1.51.365 3.524-.055 4.335-.554.399-.218.37-.488.385.12.007.287.03.459.405 1.782.31 1.06.657 2.112 1.596 2.696.402.245.656.145.881.057.31-.123.613-.168.901.063.333.268.541.83.291 1.481-.311.936-1.478 1.227-2.463 1.115a.244.244 0 0 0-.257.146c-.516 1.157-1.14 2.13-2.051 2.985-.1.067-.414.508-1.697.773-.293.061-.25.495.05.495.185 0 1.069-.238 1.621-.604l.354 3.273c-.031.02-.068.03-.089.064-.28.46-.889.64-1.362.784-.203.062-.407.124-.604.203a.25.25 0 0 0 .186.464c.69-.279 1.47-.317 2.056-1.026.183.04-.54.02 2.558-.072 2.142-.072 4.369 1.651 4.446 3.74l.336 10.06a.25.25 0 0 0-.148.108C108.114 64.864 99.339 68.136 86.703 66l.238-2.246a1.843 1.843 0 0 0 .303-2.87l.237-2.242c.123.021.244.032.366.05.03.013.06.028.092.028q.024-.002.048-.008c9.696 1.432 17.79-3.544 22.395-12.11a.25.25 0 1 0-.44-.236c-3.944 7.337-10.246 11.607-17.445 12.063l.078-2.265c.574-.41 1.162-.876 1.752-1.396a.25.25 0 0 0 .023-.352.25.25 0 0 0-.353-.023c-1.848 1.628-3.878 2.918-6.07 3.81-.131-.02-.262-.034-.393-.057l.007-.07a.25.25 0 0 0-.058-.188c-.126-.149-.188-.063-2.33-.233-.138-.033-.252.089-.266.224l-.037.36-1.508-.201-.982-2.115c-.51-1.114-2.408-.233-1.879.881l.418.899-3.528-.479c-.79-.104-1.124 1.253-.775 1.893a1.1 1.1 0 0 0-.3.421c-3.917-.526-8.159-1.93-12.618-4.182zM85.36 58.17l1.657.112-.24 2.268c-.032-.016-.06-.038-.093-.052a1.84 1.84 0 0 0-1.568.052zm-.561 5.465c.49.39 1.06.485 1.616.34l-.224 2.116-1.636-.079zm7.198-5.19c-1.028.039-2.07.008-3.129-.109a21 21 0 0 0 3.195-1.816zM76.46 63.13c.034-.054.076-.13.12-.103h.003c.096.013 3.167.44 3.264.44.309 0 .341-.457.033-.498l-3.232-.437v-.001h-.003c-.267-.035-.256-.876.011-1.217.07-.089.123-.102.156-.102q.013 0 .023.003c.012 0 .02-.009.032-.01 2.103.285 3.047.427 3.162.427.31 0 .342-.457.034-.498l-3.195-.433c-.404-.14-.194-1.316.2-1.238 2.12.287 3.071.43 3.188.43.309 0 .342-.457.033-.499l-3.152-.427c-.325-.046-.174-1.284.166-1.247l3.982.54a.25.25 0 0 0 .26-.353l-.612-1.315c-.243-.507.734-.976.973-.46l1.04 2.24c.102.22.247.111 1.852.365l-.23 2.232c-.572.642-.6 1.49-.22 2.147l-.223 2.17-6.581-.892-.004-.002-.002.001-1.114-.151c-.146-.02-.21-.727.036-1.112m1.33 34.525V64.933l3.584.486v24.788a310 310 0 0 0-3.584 7.448m4.084-8.439v-23.73l2.2.3c-.02.362-.1.495.014.627.045.052.11.083.178.087l2.135.101h.012c.082 0 .145-.047.19-.11q2.662.45 5.1.585l-.124 4.043-.02.472a275 275 0 0 0-9.685 17.625"/><path d="M129.36 127.98a72 72 0 0 1-1.824-3.656l-6.395.998a.3.3 0 0 1-.092.02l-7.374 1.16a40 40 0 0 0 2.226 3.087q-.97.372-1.855.815c.186-.524.413-1.171.276-1.82-.227-1.092-1.583-.73-1.802.385-.106.538.06 1.05.211 1.521-2.178-1.283-2.9 1.319-.94 1.25a16.1 16.1 0 0 0-3.877 3.79.25.25 0 0 0-.047.134l-.05.006.382 3.33 21.03-2.42-.383-3.33-.163.02-.59-5.119zm-16.35 1.086c.109-.55.566-.713.713-.61q.073.053.11.23c.1.48-.053.972-.263 1.566q-.09.258-.25.443c-.064-.22-.147-.452-.21-.665-.08-.273-.166-.63-.1-.964m-1.415 1.572c.343 0 .807.202 1.126.448-.25.088-.555.137-.924.154-.887.054-.773-.602-.202-.602m1.664.761a3.87 3.87 0 0 1 1.733 1.79c.139.299.592.087.453-.212a4.3 4.3 0 0 0-1.692-1.862 20 20 0 0 1 1.913-.894 3.7 3.7 0 0 1 1.43 1.652.25.25 0 0 0 .46-.2 4.2 4.2 0 0 0-1.34-1.671q.552-.21 1.135-.396l8.154-1.104.502 4.865-17.341 1.995c1.243-1.59 2.768-2.902 4.593-3.963m14.903 1.72-1.658.19-.503-4.875 1.598-.216zm-24.754-86.313c-.246.017-.499.03-.746.023l.293-3.073c.03-.321-.466-.39-.498-.047l-.292 3.062a1.7 1.7 0 0 1-.463-.164c-.293-.16-.531.273-.246.436.191.108.42.175.662.223l-.61 6.39a1.3 1.3 0 0 1-.291-.104.25.25 0 0 0-.338.105.25.25 0 0 0 .105.338c.15.079.312.13.477.165l-.082.86c-.03.329.465.379.498.046l.083-.87a1.9 1.9 0 0 0 .929-.277c.274-.176.021-.597-.268-.424a1.4 1.4 0 0 1-.613.196l.606-6.36a6 6 0 0 0 .83-.027c.137-.01.24-.128.23-.266s-.131-.259-.266-.232m.194-17.899c.165-.107.547-.225.916-.198a.25.25 0 0 0 .027-.5c-.494-.024-.955.113-1.211.274a.25.25 0 0 0-.078.346.25.25 0 0 0 .346.078m-3.401-.203c-.722-.506-1.434-.47-1.535-.485a.25.25 0 0 0 0 .5c.442 0 .886.141 1.248.395a.25.25 0 1 0 .287-.41"/></svg>