<svg aria-roledescription="er" role="graphics-document document" viewBox="-116.93402862548828 0 726.345703125 640" style="max-width: 726.345703125px;" xmlns:xlink="http://www.w3.org/1999/xlink" xmlns="http://www.w3.org/2000/svg" width="100%" id="mermaid-1720171491384"><style>#mermaid-1720171491384{font-family:"trebuchet ms",verdana,arial,sans-serif;font-size:16px;fill:#333;}#mermaid-1720171491384 .error-icon{fill:#552222;}#mermaid-1720171491384 .error-text{fill:#552222;stroke:#552222;}#mermaid-1720171491384 .edge-thickness-normal{stroke-width:2px;}#mermaid-1720171491384 .edge-thickness-thick{stroke-width:3.5px;}#mermaid-1720171491384 .edge-pattern-solid{stroke-dasharray:0;}#mermaid-1720171491384 .edge-pattern-dashed{stroke-dasharray:3;}#mermaid-1720171491384 .edge-pattern-dotted{stroke-dasharray:2;}#mermaid-1720171491384 .marker{fill:#333333;stroke:#333333;}#mermaid-1720171491384 .marker.cross{stroke:#333333;}#mermaid-1720171491384 svg{font-family:"trebuchet ms",verdana,arial,sans-serif;font-size:16px;}#mermaid-1720171491384 .entityBox{fill:#ECECFF;stroke:#9370DB;}#mermaid-1720171491384 .attributeBoxOdd{fill:#ffffff;stroke:#9370DB;}#mermaid-1720171491384 .attributeBoxEven{fill:#f2f2f2;stroke:#9370DB;}#mermaid-1720171491384 .relationshipLabelBox{fill:hsl(80, 100%, 96.2745098039%);opacity:0.7;background-color:hsl(80, 100%, 96.2745098039%);}#mermaid-1720171491384 .relationshipLabelBox rect{opacity:0.5;}#mermaid-1720171491384 .relationshipLine{stroke:#333333;}#mermaid-1720171491384 .entityTitleText{text-anchor:middle;font-size:18px;fill:#333;}#mermaid-1720171491384 #MD_PARENT_START{fill:#f5f5f5!important;stroke:#333333!important;stroke-width:1;}#mermaid-1720171491384 #MD_PARENT_END{fill:#f5f5f5!important;stroke:#333333!important;stroke-width:1;}#mermaid-1720171491384 :root{--mermaid-font-family:"trebuchet ms",verdana,arial,sans-serif;}</style><g></g><defs><marker orient="auto" markerHeight="240" markerWidth="190" refY="7" refX="0" id="MD_PARENT_START"><path d="M 18,7 L9,13 L1,7 L9,1 Z"></path></marker></defs><defs><marker orient="auto" markerHeight="28" markerWidth="20" refY="7" refX="19" id="MD_PARENT_END"><path d="M 18,7 L9,13 L1,7 L9,1 Z"></path></marker></defs><defs><marker orient="auto" markerHeight="18" markerWidth="18" refY="9" refX="0" id="ONLY_ONE_START"><path d="M9,0 L9,18 M15,0 L15,18" fill="none" stroke="gray"></path></marker></defs><defs><marker orient="auto" markerHeight="18" markerWidth="18" refY="9" refX="18" id="ONLY_ONE_END"><path d="M3,0 L3,18 M9,0 L9,18" fill="none" stroke="gray"></path></marker></defs><defs><marker orient="auto" markerHeight="18" markerWidth="30" refY="9" refX="0" id="ZERO_OR_ONE_START"><circle r="6" cy="9" cx="21" fill="white" stroke="gray"></circle><path d="M9,0 L9,18" fill="none" stroke="gray"></path></marker></defs><defs><marker orient="auto" markerHeight="18" markerWidth="30" refY="9" refX="30" id="ZERO_OR_ONE_END"><circle r="6" cy="9" cx="9" fill="white" stroke="gray"></circle><path d="M21,0 L21,18" fill="none" stroke="gray"></path></marker></defs><defs><marker orient="auto" markerHeight="36" markerWidth="45" refY="18" refX="18" id="ONE_OR_MORE_START"><path d="M0,18 Q 18,0 36,18 Q 18,36 0,18 M42,9 L42,27" fill="none" stroke="gray"></path></marker></defs><defs><marker orient="auto" markerHeight="36" markerWidth="45" refY="18" refX="27" id="ONE_OR_MORE_END"><path d="M3,9 L3,27 M9,18 Q27,0 45,18 Q27,36 9,18" fill="none" stroke="gray"></path></marker></defs><defs><marker orient="auto" markerHeight="36" markerWidth="57" refY="18" refX="18" id="ZERO_OR_MORE_START"><circle r="6" cy="18" cx="48" fill="white" stroke="gray"></circle><path d="M0,18 Q18,0 36,18 Q18,36 0,18" fill="none" stroke="gray"></path></marker></defs><defs><marker orient="auto" markerHeight="36" markerWidth="57" refY="18" refX="39" id="ZERO_OR_MORE_END"><circle r="6" cy="18" cx="9" fill="white" stroke="gray"></circle><path d="M21,18 Q39,0 57,18 Q39,36 21,18" fill="none" stroke="gray"></path></marker></defs><path style="stroke: gray; fill: none;" marker-start="url(#ONE_OR_MORE_START)" marker-end="url(#ONE_OR_MORE_END)" stroke-dasharray="8,8" d="M84.702,95L84.702,103.333C84.702,111.667,84.702,128.333,84.702,145C84.702,161.667,84.702,178.333,84.702,186.667L84.702,195" class="er relationshipLine"></path><path style="stroke: gray; fill: none;" marker-start="url(#ONLY_ONE_START)" marker-end="url(#ZERO_OR_MORE_END)" d="M34.702,84.063L15.585,94.219C-3.532,104.375,-41.766,124.688,-60.883,149.427C-80,174.167,-80,203.333,-80,232.5C-80,261.667,-80,290.833,-60.883,315.573C-41.766,340.312,-3.532,360.625,15.585,370.781L34.702,380.937" class="er relationshipLine"></path><path style="stroke: gray; fill: none;" marker-start="url(#ONLY_ONE_START)" marker-end="url(#ZERO_OR_MORE_END)" d="M134.702,77.877L162.152,89.064C189.602,100.251,244.503,122.626,271.953,142.146C299.403,161.667,299.403,178.333,299.403,186.667L299.403,195" class="er relationshipLine"></path><path style="stroke: gray; fill: none;" marker-start="url(#ONLY_ONE_START)" marker-end="url(#ZERO_OR_MORE_END)" d="M84.702,270L84.702,278.333C84.702,286.667,84.702,303.333,84.702,320C84.702,336.667,84.702,353.333,84.702,361.667L84.702,370" class="er relationshipLine"></path><path style="stroke: gray; fill: none;" marker-start="url(#ONLY_ONE_START)" marker-end="url(#ONE_OR_MORE_END)" d="M299.403,270L299.403,278.333C299.403,286.667,299.403,303.333,271.953,322.854C244.503,342.374,189.602,364.749,162.152,375.936L134.702,387.123" class="er relationshipLine"></path><path style="stroke: gray; fill: none;" marker-start="url(#ONLY_ONE_START)" marker-end="url(#ONE_OR_MORE_END)" d="M84.702,445L84.702,453.333C84.702,461.667,84.702,478.333,112.594,497.895C140.486,517.457,196.27,539.914,224.162,551.143L252.054,562.371" class="er relationshipLine"></path><path style="stroke: gray; fill: none;" marker-start="url(#ONLY_ONE_START)" marker-end="url(#ONE_OR_MORE_END)" d="M519.407,270L519.407,278.333C519.407,286.667,519.407,303.333,519.407,320C519.407,336.667,519.407,353.333,519.407,361.667L519.407,370" class="er relationshipLine"></path><path style="stroke: gray; fill: none;" marker-start="url(#ONLY_ONE_START)" marker-end="url(#ZERO_OR_MORE_END)" d="M519.407,445L519.407,453.333C519.407,461.667,519.407,478.333,491.515,497.895C463.623,517.457,407.839,539.914,379.947,551.143L352.054,562.371" class="er relationshipLine"></path><g transform="translate(34.701507568359375,20 )" id="entity-CUSTOMER-7c659eae-ee79-5f5d-acd7-c418f8ad1d67"><rect height="75" width="100" y="0" x="0" class="er entityBox"></rect><text style="dominant-baseline: middle; text-anchor: middle; font-size: 12px;" transform="translate(50,37.5)" y="0" x="0" id="text-entity-CUSTOMER-7c659eae-ee79-5f5d-acd7-c418f8ad1d67" class="er entityLabel">CUSTOMER</text></g><g transform="translate(20,195 )" id="entity-DELIVERYADDRESS-fd3face8-ad78-5943-8bd2-c15cc8ecb9c6"><rect height="75" width="129.40301513671875" y="0" x="0" class="er entityBox"></rect><text style="dominant-baseline: middle; text-anchor: middle; font-size: 12px;" transform="translate(64.70150756835938,37.5)" y="0" x="0" id="text-entity-DELIVERYADDRESS-fd3face8-ad78-5943-8bd2-c15cc8ecb9c6" class="er entityLabel">DELIVERY-ADDRESS</text></g><g transform="translate(34.701507568359375,370 )" id="entity-ORDER-36941e20-eb1d-50a3-81c5-00079b43c24a"><rect height="75" width="100" y="0" x="0" class="er entityBox"></rect><text style="dominant-baseline: middle; text-anchor: middle; font-size: 12px;" transform="translate(50,37.5)" y="0" x="0" id="text-entity-ORDER-36941e20-eb1d-50a3-81c5-00079b43c24a" class="er entityLabel">ORDER</text></g><g transform="translate(249.40301513671875,195 )" id="entity-INVOICE-befa8dd9-5ec7-5029-b058-27b05a6cdbcd"><rect height="75" width="100" y="0" x="0" class="er entityBox"></rect><text style="dominant-baseline: middle; text-anchor: middle; font-size: 12px;" transform="translate(50,37.5)" y="0" x="0" id="text-entity-INVOICE-befa8dd9-5ec7-5029-b058-27b05a6cdbcd" class="er entityLabel">INVOICE</text></g><g transform="translate(252.05442810058594,545 )" id="entity-ORDERITEM-2f3e0a8a-1139-508c-8589-2d144a3ff50e"><rect height="75" width="100" y="0" x="0" class="er entityBox"></rect><text style="dominant-baseline: middle; text-anchor: middle; font-size: 12px;" transform="translate(50,37.5)" y="0" x="0" id="text-entity-ORDERITEM-2f3e0a8a-1139-508c-8589-2d144a3ff50e" class="er entityLabel">ORDER-ITEM</text></g><g transform="translate(449.40301513671875,195 )" id="entity-PRODUCTCATEGORY-d522e853-470b-5a3e-b40c-3b174e1dded4"><rect height="75" width="140.0086669921875" y="0" x="0" class="er entityBox"></rect><text style="dominant-baseline: middle; text-anchor: middle; font-size: 12px;" transform="translate(70.00433349609375,37.5)" y="0" x="0" id="text-entity-PRODUCTCATEGORY-d522e853-470b-5a3e-b40c-3b174e1dded4" class="er entityLabel">PRODUCT-CATEGORY</text></g><g transform="translate(469.4073486328125,370 )" id="entity-PRODUCT-b14524a1-8e20-5805-a382-423fd1ec339f"><rect height="75" width="100" y="0" x="0" class="er entityBox"></rect><text style="dominant-baseline: middle; text-anchor: middle; font-size: 12px;" transform="translate(50,37.5)" y="0" x="0" id="text-entity-PRODUCT-b14524a1-8e20-5805-a382-423fd1ec339f" class="er entityLabel">PRODUCT</text></g><rect height="13.874065399169922" width="17.726119995117188" y="138.06296730041504" x="75.83894348144531" class="er relationshipLabelBox"></rect><text style="text-anchor: middle; dominant-baseline: middle; font-size: 12px;" y="145" x="84.7020034790039" id="rel1" class="er relationshipLabel">has</text><rect height="14.19964599609375" width="33.86806106567383" y="225.40020751953125" x="-96.93403053283691" class="er relationshipLabelBox"></rect><text style="text-anchor: middle; dominant-baseline: middle; font-size: 12px;" y="232.50003051757812" x="-80" id="rel2" class="er relationshipLabel">places</text><rect height="13.874065399169922" width="49.17622756958008" y="113.28243446350098" x="208.81390953063965" class="er relationshipLabelBox"></rect><text style="text-anchor: middle; dominant-baseline: middle; font-size: 12px;" y="120.21946716308594" x="233.4020233154297" id="rel3" class="er relationshipLabel">liable for</text><rect height="13.874065399169922" width="44.39033889770508" y="313.06296730041504" x="62.50683403015137" class="er relationshipLabelBox"></rect><text style="text-anchor: middle; dominant-baseline: middle; font-size: 12px;" y="320" x="84.7020034790039" id="rel4" class="er relationshipLabel">receives</text><rect height="13.874065399169922" width="34.318302154541016" y="337.84351539611816" x="216.24288749694824" class="er relationshipLabelBox"></rect><text style="text-anchor: middle; dominant-baseline: middle; font-size: 12px;" y="344.7805480957031" x="233.40203857421875" id="rel5" class="er relationshipLabel">covers</text><rect height="13.874065399169922" width="44.090179443359375" y="513.0813999176025" x="130.0084686279297" class="er relationshipLabelBox"></rect><text style="text-anchor: middle; dominant-baseline: middle; font-size: 12px;" y="520.0184326171875" x="152.05355834960938" id="rel6" class="er relationshipLabel">includes</text><rect height="13.874065399169922" width="44.82390594482422" y="313.06296730041504" x="496.9950294494629" class="er relationshipLabelBox"></rect><text style="text-anchor: middle; dominant-baseline: middle; font-size: 12px;" y="320" x="519.406982421875" id="rel7" class="er relationshipLabel">contains</text><rect height="13.874065399169922" width="55.8130989074707" y="513.0815830230713" x="424.14850425720215" class="er relationshipLabelBox"></rect><text style="text-anchor: middle; dominant-baseline: middle; font-size: 12px;" y="520.0186157226562" x="452.0550537109375" id="rel8" class="er relationshipLabel">ordered in</text></svg>