<svg aria-roledescription="sankey" height="400" xmlns="http://www.w3.org/2000/svg" width="488" id="mermaid-1720171763239" style="font-family:&quot;trebuchet ms&quot;,verdana,arial,sans-serif;font-size:16px;fill:#333"><style>#mermaid-1720171763239 svg{font-family:&quot;trebuchet ms&quot;,verdana,arial,sans-serif;font-size:16px}#mermaid-1720171763239 :root{--mermaid-font-family:&quot;trebuchet ms&quot;,verdana,arial,sans-serif}</style><g/><g class="nodes"><path fill="#4e79a7" transform="translate(0 12.298)" id="node-1" class="node" d="M0 0h10v350H0z"/><path fill="#f28e2c" transform="translate(478)" id="node-2" class="node" d="M0 0h10v149.025H0z"/><path fill="#e15759" transform="translate(478 174.025)" id="node-3" class="node" d="M0 0h10v162.254H0z"/><path fill="#76b7b2" transform="translate(478 359.279)" id="node-4" class="node" d="M0 0h10v38.721H0z"/></g><g font-size="14" font-family="sans-serif" class="node-label"><text dy="0em" y="187.298" x="16">Electricity grid
245.32</text><text text-anchor="end" dy="0em" y="74.512" x="473">Over generation / exports
104.45</text><text text-anchor="end" dy="0em" y="255.152" x="473">Heating and cooling - homes
113.73</text><text text-anchor="end" dy="0em" y="380.639" x="473">H2 conversion
27.14</text></g><g stroke-opacity=".5" fill="none" class="links"><g style="mix-blend-mode:multiply" class="link"><linearGradient x2="590" x1="10" gradientUnits="userSpaceOnUse" id="linearGradient-5"><stop stop-color="#4e79a7" offset="0%"/><stop stop-color="#f28e2c" offset="100%"/></linearGradient><path stroke-width="149.025" stroke="url(#linearGradient-5)" d="M10 86.81c290 0 290-12.298 580-12.298"/></g><g style="mix-blend-mode:multiply" class="link"><linearGradient x2="590" x1="10" gradientUnits="userSpaceOnUse" id="linearGradient-6"><stop stop-color="#4e79a7" offset="0%"/><stop stop-color="#e15759" offset="100%"/></linearGradient><path stroke-width="162.254" stroke="url(#linearGradient-6)" d="M10 242.45c290 0 290 12.702 580 12.702"/></g><g style="mix-blend-mode:multiply" class="link"><linearGradient x2="590" x1="10" gradientUnits="userSpaceOnUse" id="linearGradient-7"><stop stop-color="#4e79a7" offset="0%"/><stop stop-color="#76b7b2" offset="100%"/></linearGradient><path stroke-width="38.721" stroke="url(#linearGradient-7)" d="M10 342.938c290 0 290 37.701 580 37.701"/></g></g></svg>